{
.appVersion = "113";
DisplayStrings = (
hack,
made,
glom,
nerf,
puny,
just,
vows,
maxx,
quiz,
"0142857",
",.:';\"?,/quotedblleft -/quotedblright/quoteleft !/quoteright _«x»",
"&(0)@COM",
"«»/guilsinglleft/guilsinglright"
);
date = "2021-04-06 18:09:22 +0000";
designer = "David Jones";
familyName = "Andily Lab 20210617";
featurePrefixes = (
{
automatic = 1;
code = "languagesystem DFLT dflt;\012";
name = Languagesystems;
}
);
fontMaster = (
{
ascender = 800;
capHeight = 700;
descender = -200;
id = "E2AE1CAA-C3FF-4A1A-9C2C-5962460044E3";
userData = {
GSCornerRadius = 4;
};
weightValue = 0;
widthValue = 0;
xHeight = 472;
}
);
glyphs = (
{
glyphname = A;
lastChange = "2021-04-12 13:56:33 +0000";
layers = (
{
backgroundImage = {
crop = "{{0, 0}, {656, 1000}}";
imagePath = "sample-uc/A.png";
locked = "1";
transform = "{1, 0, 0, 1, 0, -200}";
};
layerId = "E2AE1CAA-C3FF-4A1A-9C2C-5962460044E3";
paths = (
{
closed = 1;
nodes = (
"613 5 LINE",
"337 703 LINE",
"232 671 LINE",
"251 621 LINE",
"177 408 OFFCURVE",
"100 197 OFFCURVE",
"19 -3 CURVE",
"97 3 LINE",
"299 576 LINE",
"271 576 LINE",
"502 -17 LINE"
);
},
{
closed = 1;
nodes = (
"423 232 LINE",
"423 297 LINE",
"166 297 LINE",
"166 232 LINE"
);
}
);
width = 600;
}
);
unicode = 0041;
},
{
glyphname = B;
lastChange = "2021-04-12 15:47:58 +0000";
layers = (
{
backgroundImage = {
crop = "{{0, 0}, {656, 1000}}";
imagePath = "sample-uc/B.png";
locked = "1";
transform = "{1, 0, 0, 1, -51, -200}";
};
layerId = "E2AE1CAA-C3FF-4A1A-9C2C-5962460044E3";
paths = (
{
closed = 1;
nodes = (
"284 -3 OFFCURVE",
"358 17 OFFCURVE",
"407 48 CURVE SMOOTH",
"464 86 OFFCURVE",
"489 130 OFFCURVE",
"489 196 CURVE",
"489 289 OFFCURVE",
"446 342 OFFCURVE",
"347 373 CURVE",
"387 396 OFFCURVE",
"425 426 OFFCURVE",
"444 448 CURVE SMOOTH",
"464 472 OFFCURVE",
"474 506 OFFCURVE",
"474 547 CURVE",
"474 631 OFFCURVE",
"393 700 OFFCURVE",
"295 700 CURVE",
"222 700 OFFCURVE",
"149 697 OFFCURVE",
"76 692 CURVE",
"75 5 LINE",
"124 0 OFFCURVE",
"174 -3 OFFCURVE",
"223 -3 CURVE"
);
},
{
closed = 1;
nodes = (
"258 38 OFFCURVE",
"222 49 OFFCURVE",
"190 62 CURVE",
"186 320 LINE",
"191 322 OFFCURVE",
"198 322 OFFCURVE",
"203 322 CURVE",
"319 322 OFFCURVE",
"382 272 OFFCURVE",
"382 178 CURVE",
"382 121 OFFCURVE",
"357 78 OFFCURVE",
"297 35 CURVE"
);
},
{
closed = 1;
nodes = (
"186 642 LINE",
"202 644 OFFCURVE",
"222 645 OFFCURVE",
"238 645 CURVE",
"313 645 OFFCURVE",
"374 581 OFFCURVE",
"374 503 CURVE",
"374 459 OFFCURVE",
"362 435 OFFCURVE",
"315 381 CURVE",
"290 383 OFFCURVE",
"267 385 OFFCURVE",
"242 385 CURVE",
"186 345 LINE"
);
}
);
width = 564;
}
);
unicode = 0042;
},
{
glyphname = C;
lastChange = "2021-04-27 11:05:07 +0000";
layers = (
{
backgroundImage = {
crop = "{{0, 0}, {656, 1000}}";
imagePath = "sample-uc/C.png";
locked = "1";
transform = "{1, 0, 0, 1, 38, -200}";
};
layerId = "E2AE1CAA-C3FF-4A1A-9C2C-5962460044E3";
paths = (
{
closed = 1;
nodes = (
"496 708 OFFCURVE",
"555 688 OFFCURVE",
"625 640 CURVE",
"531 570 LINE",
"477 603 OFFCURVE",
"430 617 OFFCURVE",
"374 617 CURVE",
"311 617 OFFCURVE",
"266 609 OFFCURVE",
"231 580 CURVE SMOOTH",
"195 550 OFFCURVE",
"165 460 OFFCURVE",
"165 381 CURVE",
"165 202 OFFCURVE",
"279 86 OFFCURVE",
"450 86 CURVE",
"504 86 OFFCURVE",
"549 102 OFFCURVE",
"632 153 CURVE",
"642 138 LINE",
"519 25 OFFCURVE",
"466 -3 OFFCURVE",
"377 -3 CURVE",
"196 -3 OFFCURVE",
"75 126 OFFCURVE",
"75 320 CURVE",
"75 409 OFFCURVE",
"102 488 OFFCURVE",
"153 545 CURVE SMOOTH",
"208 609 OFFCURVE",
"277 653 OFFCURVE",
"339 686 CURVE SMOOTH",
"365 700 OFFCURVE",
"398 708 OFFCURVE",
"428 708 CURVE"
);
}
);
width = 717;
}
);
unicode = 0043;
},
{
glyphname = D;
lastChange = "2021-04-11 15:26:37 +0000";
layers = (
{
backgroundImage = {
crop = "{{0, 0}, {656, 1000}}";
imagePath = "sample-uc/D.png";
locked = "1";
transform = "{1, 0, 0, 1, 21, -200}";
};
layerId = "E2AE1CAA-C3FF-4A1A-9C2C-5962460044E3";
paths = (
{
closed = 1;
nodes = (
"284 1 OFFCURVE",
"351 13 OFFCURVE",
"385 30 CURVE SMOOTH",
"488 85 OFFCURVE",
"563 164 OFFCURVE",
"600 256 CURVE SMOOTH",
"614 285 OFFCURVE",
"623 343 OFFCURVE",
"623 401 CURVE SMOOTH",
"623 568 OFFCURVE",
"479 703 OFFCURVE",
"304 703 CURVE",
"227 703 OFFCURVE",
"150 700 OFFCURVE",
"75 697 CURVE",
"75 8 LINE",
"123 5 OFFCURVE",
"170 1 OFFCURVE",
"217 1 CURVE"
);
},
{
closed = 1;
nodes = (
"244 77 OFFCURVE",
"216 82 OFFCURVE",
"188 85 CURVE",
"184 269 OFFCURVE",
"184 458 OFFCURVE",
"188 642 CURVE",
"372 642 OFFCURVE",
"533 535 OFFCURVE",
"530 319 CURVE SMOOTH",
"530 247 OFFCURVE",
"519 176 OFFCURVE",
"477 134 CURVE SMOOTH",
"440 97 OFFCURVE",
"364 77 OFFCURVE",
"271 77 CURVE"
);
}
);
width = 698;
}
);
unicode = 0044;
},
{
glyphname = E;
lastChange = "2021-04-09 19:40:47 +0000";
layers = (
{
backgroundImage = {
crop = "{{0, 0}, {575, 1000}}";
imagePath = "sample-uc/E.png";
locked = "1";
transform = "{1, 0, 0, 1, -14, -200}";
};
layerId = "E2AE1CAA-C3FF-4A1A-9C2C-5962460044E3";
paths = (
{
closed = 1;
nodes = (
"187 636 LINE",
"258 638 OFFCURVE",
"331 638 OFFCURVE",
"403 636 CURVE",
"437 702 LINE",
"317 697 OFFCURVE",
"196 697 OFFCURVE",
"75 700 CURVE",
"75 0 LINE",
"404 2 LINE",
"430 70 LINE",
"349 64 OFFCURVE",
"268 64 OFFCURVE",
"187 64 CURVE",
"187 325 LINE",
"402 325 LINE",
"429 390 LINE",
"187 390 LINE"
);
}
);
width = 512;
}
);
unicode = 0045;
},
{
glyphname = F;
lastChange = "2021-04-12 12:38:03 +0000";
layers = (
{
backgroundImage = {
crop = "{{0, 0}, {616, 1000}}";
imagePath = "sample-uc/F.png";
locked = "1";
transform = "{1, 0, 0, 1, -102, -200}";
};
layerId = "E2AE1CAA-C3FF-4A1A-9C2C-5962460044E3";
paths = (
{
closed = 1;
nodes = (
"250 700 OFFCURVE",
"387 700 OFFCURVE",
"436 706 CURVE",
"405 637 LINE",
"348 640 OFFCURVE",
"273 640 OFFCURVE",
"187 638 CURVE",
"187 394 LINE",
"237 391 OFFCURVE",
"332 392 OFFCURVE",
"433 394 CURVE",
"424 370 OFFCURVE",
"415 347 OFFCURVE",
"400 326 CURVE",
"349 329 OFFCURVE",
"272 329 OFFCURVE",
"188 329 CURVE",
"192 1 LINE",
"75 -1 LINE",
"78 233 OFFCURVE",
"78 467 OFFCURVE",
"75 701 CURVE"
);
}
);
width = 511;
}
);
unicode = 0046;
},
{
glyphname = G;
lastChange = "2021-04-12 14:17:30 +0000";
layers = (
{
backgroundImage = {
crop = "{{0, 0}, {616, 1000}}";
imagePath = "sample-uc/G.png";
locked = "1";
transform = "{1, 0, 0, 1, 37, -200}";
};
layerId = "E2AE1CAA-C3FF-4A1A-9C2C-5962460044E3";
paths = (
{
closed = 1;
nodes = (
"495 707 OFFCURVE",
"555 682 OFFCURVE",
"614 642 CURVE",
"520 570 LINE",
"470 606 OFFCURVE",
"432 618 OFFCURVE",
"369 618 CURVE SMOOTH",
"314 618 OFFCURVE",
"253 600 OFFCURVE",
"216 573 CURVE",
"180 513 OFFCURVE",
"160 443 OFFCURVE",
"160 372 CURVE",
"160 215 OFFCURVE",
"284 87 OFFCURVE",
"436 87 CURVE",
"459 87 OFFCURVE",
"481 89 OFFCURVE",
"505 93 CURVE",
"505 319 LINE",
"446 319 OFFCURVE",
"386 318 OFFCURVE",
"326 315 CURVE",
"413 393 LINE",
"479 390 OFFCURVE",
"545 389 OFFCURVE",
"611 389 CURVE",
"611 124 LINE",
"554 80 OFFCURVE",
"503 39 OFFCURVE",
"436 10 CURVE SMOOTH",
"418 2 OFFCURVE",
"388 -3 OFFCURVE",
"362 -3 CURVE",
"204 -3 OFFCURVE",
"75 141 OFFCURVE",
"75 319 CURVE",
"75 395 OFFCURVE",
"85 446 OFFCURVE",
"109 487 CURVE SMOOTH",
"163 579 OFFCURVE",
"244 646 OFFCURVE",
"351 692 CURVE SMOOTH",
"377 703 OFFCURVE",
"408 707 OFFCURVE",
"436 707 CURVE"
);
}
);
width = 689;
}
);
unicode = 0047;
},
{
glyphname = H;
lastChange = "2021-04-11 20:03:56 +0000";
layers = (
{
backgroundImage = {
crop = "{{0, 0}, {616, 1000}}";
imagePath = "sample-uc/H.png";
locked = "1";
transform = "{1, 0, 0, 1, 32, -200}";
};
layerId = "E2AE1CAA-C3FF-4A1A-9C2C-5962460044E3";
paths = (
{
closed = 1;
nodes = (
"187 392 LINE",
"471 392 LINE",
"473 702 LINE",
"587 704 LINE",
"582 469 OFFCURVE",
"580 235 OFFCURVE",
"583 0 CURVE",
"464 0 LINE",
"469 320 LINE",
"187 320 LINE",
"189 0 LINE",
"75 0 LINE",
"81 702 LINE",
"189 704 LINE"
);
}
);
width = 662;
}
);
unicode = 0048;
},
{
glyphname = I;
lastChange = "2021-04-11 17:19:08 +0000";
layers = (
{
backgroundImage = {
crop = "{{0, 0}, {405, 1000}}";
imagePath = "sample-uc/I.png";
locked = "1";
transform = "{1, 0, 0, 1, -115, -200}";
};
layerId = "E2AE1CAA-C3FF-4A1A-9C2C-5962460044E3";
paths = (
{
closed = 1;
nodes = (
"189 704 LINE",
"187 470 OFFCURVE",
"184 8 OFFCURVE",
"184 1 CURVE",
"75 -4 LINE",
"77 230 OFFCURVE",
"83 691 OFFCURVE",
"81 697 CURVE"
);
}
);
width = 264;
}
);
unicode = 0049;
},
{
glyphname = J;
lastChange = "2021-04-09 20:01:46 +0000";
layers = (
{
backgroundImage = {
crop = "{{0, 0}, {405, 1000}}";
imagePath = "sample-uc/J.png";
locked = "1";
transform = "{1, 0, 0, 1, 37, -200}";
};
layerId = "E2AE1CAA-C3FF-4A1A-9C2C-5962460044E3";
paths = (
{
closed = 1;
nodes = (
"386 704 LINE",
"385 195 LINE",
"385 176 OFFCURVE",
"384 154 OFFCURVE",
"369 135 CURVE SMOOTH",
"301 54 OFFCURVE",
"224 0 OFFCURVE",
"175 0 CURVE",
"135 0 OFFCURVE",
"100 29 OFFCURVE",
"75 83 CURVE",
"169 131 LINE",
"195 92 OFFCURVE",
"225 71 OFFCURVE",
"252 71 CURVE",
"268 71 OFFCURVE",
"280 118 OFFCURVE",
"280 164 CURVE",
"278 696 LINE"
);
}
);
width = 461;
}
);
unicode = 004A;
},
{
glyphname = K;
lastChange = "2021-04-09 20:23:36 +0000";
layers = (
{
backgroundImage = {
crop = "{{0, 0}, {545, 1000}}";
imagePath = "sample-uc/K.png";
locked = "1";
transform = "{1, 0, 0, 1, 10, -200}";
};
layerId = "E2AE1CAA-C3FF-4A1A-9C2C-5962460044E3";
paths = (
{
closed = 1;
nodes = (
"75 229 OFFCURVE",
"76 689 OFFCURVE",
"75 696 CURVE",
"179 702 LINE",
"180 349 LINE SMOOTH",
"180 343 OFFCURVE",
"188 340 OFFCURVE",
"192 345 CURVE",
"428 687 LINE",
"509 695 LINE",
"423 593 OFFCURVE",
"341 484 OFFCURVE",
"269 374 CURVE",
"514 45 LINE",
"423 -2 LINE",
"191 301 LINE SMOOTH",
"187 307 OFFCURVE",
"180 303 OFFCURVE",
"180 297 CURVE SMOOTH",
"181 0 LINE",
"75 -1 LINE"
);
}
);
width = 589;
}
);
unicode = 004B;
},
{
glyphname = L;
lastChange = "2021-04-11 16:44:48 +0000";
layers = (
{
backgroundImage = {
crop = "{{0, 0}, {539, 1000}}";
imagePath = "sample-uc/L.png";
locked = "1";
transform = "{1, 0, 0, 1, -8, -200}";
};
layerId = "E2AE1CAA-C3FF-4A1A-9C2C-5962460044E3";
paths = (
{
closed = 1;
nodes = (
"190 703 LINE",
"192 66 LINE",
"376 66 LINE",
"394 66 OFFCURVE",
"423 70 OFFCURVE",
"441 74 CURVE",
"416 0 LINE",
"75 0 LINE",
"80 25 OFFCURVE",
"84 66 OFFCURVE",
"84 92 CURVE",
"78 697 LINE"
);
}
);
width = 516;
}
);
unicode = 004C;
},
{
glyphname = M;
lastChange = "2021-04-11 15:40:31 +0000";
layers = (
{
backgroundImage = {
crop = "{{0, 0}, {784, 1000}}";
imagePath = "sample-uc/M.png";
locked = "1";
transform = "{1, 0, 0, 1, 33, -200}";
};
layerId = "E2AE1CAA-C3FF-4A1A-9C2C-5962460044E3";
paths = (
{
closed = 1;
nodes = (
"240 707 LINE",
"426 138 LINE",
"612 695 LINE",
"722 695 LINE",
"770 -2 LINE",
"658 -2 LINE",
"629 527 LINE",
"563 360 OFFCURVE",
"502 186 OFFCURVE",
"449 4 CURVE",
"366 -4 LINE",
"182 544 LINE",
"163 365 OFFCURVE",
"151 185 OFFCURVE",
"143 4 CURVE",
"75 -4 LINE",
"139 659 LINE",
"127 693 LINE"
);
}
);
width = 845;
}
);
unicode = 004D;
},
{
glyphname = N;
lastChange = "2021-04-07 13:52:15 +0000";
layers = (
{
backgroundImage = {
crop = "{{0, 0}, {724, 1000}}";
imagePath = N.png;
locked = "1";
transform = "{1, 0, 0, 1, -17, -200}";
};
layerId = "E2AE1CAA-C3FF-4A1A-9C2C-5962460044E3";
paths = (
{
closed = 1;
nodes = (
"296 540 OFFCURVE",
"411 374 OFFCURVE",
"529 212 CURVE",
"529 374 OFFCURVE",
"530 535 OFFCURVE",
"523 697 CURVE",
"593 701 LINE",
"588 473 OFFCURVE",
"587 241 OFFCURVE",
"592 13 CURVE",
"539 0 LINE",
"178 520 LINE",
"170 266 OFFCURVE",
"172 109 OFFCURVE",
"176 9 CURVE",
"109 0 LINE",
"115 183 OFFCURVE",
"117 387 OFFCURVE",
"117 610 CURVE",
"75 678 LINE",
"184 708 LINE"
);
}
);
width = 668;
}
);
unicode = 004E;
},
{
glyphname = O;
lastChange = "2021-04-07 13:52:25 +0000";
layers = (
{
backgroundImage = {
crop = "{{0, 0}, {720, 1000}}";
imagePath = O.png;
locked = "1";
transform = "{1, 0, 0, 1, 44, -200}";
};
layerId = "E2AE1CAA-C3FF-4A1A-9C2C-5962460044E3";
paths = (
{
closed = 1;
nodes = (
"521 4 OFFCURVE",
"664 160 OFFCURVE",
"690 212 CURVE SMOOTH",
"722 273 OFFCURVE",
"733 320 OFFCURVE",
"733 391 CURVE",
"733 562 OFFCURVE",
"599 709 OFFCURVE",
"441 709 CURVE",
"318 709 OFFCURVE",
"172 593 OFFCURVE",
"120 508 CURVE SMOOTH",
"91 461 OFFCURVE",
"75 395 OFFCURVE",
"75 331 CURVE",
"75 151 OFFCURVE",
"206 4 OFFCURVE",
"366 4 CURVE"
);
},
{
closed = 1;
nodes = (
"286 94 OFFCURVE",
"160 228 OFFCURVE",
"160 392 CURVE",
"160 463 OFFCURVE",
"188 548 OFFCURVE",
"223 580 CURVE SMOOTH",
"249 601 OFFCURVE",
"323 618 OFFCURVE",
"387 618 CURVE",
"531 618 OFFCURVE",
"649 485 OFFCURVE",
"649 322 CURVE",
"649 248 OFFCURVE",
"623 164 OFFCURVE",
"592 135 CURVE SMOOTH",
"567 112 OFFCURVE",
"499 94 OFFCURVE",
"441 94 CURVE"
);
}
);
width = 808;
}
);
unicode = 004F;
},
{
glyphname = P;
lastChange = "2021-04-11 17:42:28 +0000";
layers = (
{
backgroundImage = {
crop = "{{0, 0}, {539, 1000}}";
imagePath = "sample-uc/P.png";
locked = "1";
transform = "{1, 0, 0, 1, 7, -200}";
};
layerId = "E2AE1CAA-C3FF-4A1A-9C2C-5962460044E3";
paths = (
{
closed = 1;
nodes = (
"302 706 LINE",
"404 706 OFFCURVE",
"488 619 OFFCURVE",
"488 513 CURVE",
"488 469 OFFCURVE",
"474 424 OFFCURVE",
"453 400 CURVE SMOOTH",
"393 327 OFFCURVE",
"311 280 OFFCURVE",
"274 280 CURVE",
"189 280 LINE",
"191 1 LINE",
"75 -1 LINE",
"79 233 OFFCURVE",
"80 466 OFFCURVE",
"76 700 CURVE"
);
},
{
closed = 1;
nodes = (
"188 351 LINE",
"217 344 OFFCURVE",
"246 337 OFFCURVE",
"275 337 CURVE SMOOTH",
"303 337 OFFCURVE",
"342 344 OFFCURVE",
"353 351 CURVE SMOOTH",
"372 363 OFFCURVE",
"388 416 OFFCURVE",
"388 469 CURVE SMOOTH",
"388 543 OFFCURVE",
"375 639 OFFCURVE",
"190 638 CURVE"
);
}
);
width = 563;
}
);
unicode = 0050;
},
{
glyphname = Q;
lastChange = "2021-04-12 11:05:18 +0000";
layers = (
{
backgroundImage = {
crop = "{{0, 0}, {745, 1000}}";
imagePath = "sample-uc/Q.png";
locked = "1";
transform = "{1, 0, 0, 1, 45, -200}";
};
layerId = "E2AE1CAA-C3FF-4A1A-9C2C-5962460044E3";
paths = (
{
closed = 1;
nodes = (
"473 -4 OFFCURVE",
"736 141 OFFCURVE",
"736 366 CURVE SMOOTH",
"736 560 OFFCURVE",
"609 704 OFFCURVE",
"442 704 CURVE SMOOTH",
"408 704 OFFCURVE",
"374 699 OFFCURVE",
"346 685 CURVE SMOOTH",
"246 637 OFFCURVE",
"162 571 OFFCURVE",
"118 492 CURVE SMOOTH",
"89 440 OFFCURVE",
"75 379 OFFCURVE",
"75 320 CURVE SMOOTH",
"75 171 OFFCURVE",
"182 -4 OFFCURVE",
"370 -4 CURVE"
);
},
{
closed = 1;
nodes = (
"729 68 LINE",
"658 121 OFFCURVE",
"589 168 OFFCURVE",
"537 202 CURVE SMOOTH",
"503 224 OFFCURVE",
"484 231 OFFCURVE",
"461 231 CURVE",
"402 231 OFFCURVE",
"341 189 OFFCURVE",
"278 122 CURVE",
"298 112 LINE",
"322 138 OFFCURVE",
"347 164 OFFCURVE",
"384 164 CURVE",
"401 164 OFFCURVE",
"422 155 OFFCURVE",
"455 135 CURVE SMOOTH",
"505 103 OFFCURVE",
"583 54 OFFCURVE",
"648 -6 CURVE"
);
},
{
closed = 1;
nodes = (
"293 86 OFFCURVE",
"160 197 OFFCURVE",
"160 375 CURVE",
"160 442 OFFCURVE",
"182 509 OFFCURVE",
"225 574 CURVE",
"264 601 OFFCURVE",
"310 615 OFFCURVE",
"365 615 CURVE SMOOTH",
"533 612 OFFCURVE",
"652 499 OFFCURVE",
"652 313 CURVE",
"652 166 OFFCURVE",
"578 86 OFFCURVE",
"447 86 CURVE"
);
}
);
width = 811;
}
);
locked = 1;
unicode = 0051;
},
{
glyphname = R;
lastChange = "2021-04-12 15:33:09 +0000";
layers = (
{
backgroundImage = {
crop = "{{0, 0}, {607, 1000}}";
imagePath = "sample-uc/R.png";
locked = "1";
transform = "{1, 0, 0, 1, -22, -200}";
};
layerId = "E2AE1CAA-C3FF-4A1A-9C2C-5962460044E3";
paths = (
{
closed = 1;
nodes = (
"515 42 LINE",
"298 337 LINE",
"406 383 OFFCURVE",
"480 436 OFFCURVE",
"480 538 CURVE",
"480 638 OFFCURVE",
"406 704 OFFCURVE",
"295 704 CURVE",
"225 704 OFFCURVE",
"149 700 OFFCURVE",
"79 695 CURVE",
"80 462 OFFCURVE",
"78 229 OFFCURVE",
"75 -4 CURVE",
"190 0 LINE",
"187 299 LINE",
"194 301 LINE",
"418 -13 LINE"
);
},
{
closed = 1;
nodes = (
"188 647 LINE",
"221 647 LINE",
"328 638 OFFCURVE",
"373 592 OFFCURVE",
"373 494 CURVE",
"373 433 OFFCURVE",
"339 372 OFFCURVE",
"307 372 CURVE",
"295 372 OFFCURVE",
"281 376 OFFCURVE",
"266 382 CURVE",
"188 332 LINE"
);
}
);
width = 590;
}
);
unicode = 0052;
},
{
glyphname = S;
lastChange = "2021-04-11 20:31:11 +0000";
layers = (
{
backgroundImage = {
crop = "{{0, 0}, {534, 1000}}";
imagePath = "sample-uc/S.png";
locked = "1";
transform = "{1, 0, 0, 1, -22, -200}";
};
layerId = "E2AE1CAA-C3FF-4A1A-9C2C-5962460044E3";
paths = (
{
closed = 1;
nodes = (
"369 704 OFFCURVE",
"414 664 OFFCURVE",
"434 616 CURVE",
"336 550 LINE",
"314 594 OFFCURVE",
"281 630 OFFCURVE",
"220 630 CURVE",
"208 630 OFFCURVE",
"196 627 OFFCURVE",
"187 624 CURVE",
"172 599 OFFCURVE",
"162 571 OFFCURVE",
"162 545 CURVE",
"162 492 OFFCURVE",
"188 450 OFFCURVE",
"288 400 CURVE SMOOTH",
"405 340 OFFCURVE",
"426 324 OFFCURVE",
"426 226 CURVE",
"426 99 OFFCURVE",
"323 -4 OFFCURVE",
"215 -4 CURVE",
"149 -4 OFFCURVE",
"114 22 OFFCURVE",
"75 100 CURVE",
"177 150 LINE",
"210 87 OFFCURVE",
"238 71 OFFCURVE",
"321 71 CURVE",
"333 98 OFFCURVE",
"345 125 OFFCURVE",
"345 154 CURVE",
"345 218 OFFCURVE",
"310 261 OFFCURVE",
"228 299 CURVE SMOOTH",
"127 343 OFFCURVE",
"84 393 OFFCURVE",
"84 466 CURVE",
"84 500 OFFCURVE",
"90 534 OFFCURVE",
"108 568 CURVE SMOOTH",
"143 635 OFFCURVE",
"221 704 OFFCURVE",
"295 704 CURVE"
);
}
);
width = 509;
}
);
unicode = 0053;
},
{
glyphname = T;
lastChange = "2021-04-07 14:47:18 +0000";
layers = (
{
backgroundImage = {
crop = "{{0, 0}, {554, 1000}}";
imagePath = T.png;
locked = "1";
transform = "{1, 0, 0, 1, 38, -200}";
};
layerId = "E2AE1CAA-C3FF-4A1A-9C2C-5962460044E3";
paths = (
{
closed = 1;
nodes = (
"364 436 OFFCURVE",
"368 217 OFFCURVE",
"376 7 CURVE",
"258 0 LINE",
"264 212 OFFCURVE",
"260 433 OFFCURVE",
"258 645 CURVE",
"75 641 LINE",
"116 702 LINE",
"544 702 LINE",
"510 648 LINE",
"366 646 LINE"
);
}
);
width = 619;
}
);
unicode = 0054;
},
{
glyphname = U;
lastChange = "2021-04-12 09:54:12 +0000";
layers = (
{
backgroundImage = {
crop = "{{0, 0}, {607, 1000}}";
imagePath = "sample-uc/U.png";
locked = "1";
transform = "{1, 0, 0, 1, 0, -200}";
};
layerId = "E2AE1CAA-C3FF-4A1A-9C2C-5962460044E3";
paths = (
{
closed = 1;
nodes = (
"184 213 LINE",
"185 134 OFFCURVE",
"255 73 OFFCURVE",
"341 73 CURVE",
"412 73 OFFCURVE",
"460 114 OFFCURVE",
"460 180 CURVE",
"455 696 LINE",
"566 699 LINE",
"568 2 LINE",
"456 -2 LINE",
"459 82 LINE",
"409 43 OFFCURVE",
"343 -9 OFFCURVE",
"285 -9 CURVE",
"149 -9 OFFCURVE",
"76 64 OFFCURVE",
"75 201 CURVE",
"75 698 LINE",
"184 702 LINE"
);
}
);
width = 643;
}
);
unicode = 0055;
},
{
glyphname = V;
lastChange = "2021-04-12 20:16:40 +0000";
layers = (
{
backgroundImage = {
crop = "{{0, 0}, {644, 1000}}";
imagePath = "sample-uc/V.png";
locked = "1";
transform = "{1, 0, 0, 1, 30, -200}";
};
layerId = "E2AE1CAA-C3FF-4A1A-9C2C-5962460044E3";
paths = (
{
closed = 1;
nodes = (
"191 704 LINE",
"376 155 LINE SMOOTH",
"379 147 OFFCURVE",
"385 147 OFFCURVE",
"388 155 CURVE SMOOTH",
"559 692 LINE",
"639 699 LINE",
"549 467 OFFCURVE",
"472 236 OFFCURVE",
"408 4 CURVE",
"321 -4 LINE",
"75 696 LINE"
);
}
);
width = 714;
}
);
unicode = 0056;
},
{
glyphname = W;
lastChange = "2021-04-11 19:41:47 +0000";
layers = (
{
backgroundImage = {
crop = "{{0, 0}, {885, 1000}}";
imagePath = "sample-uc/W.png";
locked = "1";
transform = "{1, 0, 0, 1, 37, -200}";
};
layerId = "E2AE1CAA-C3FF-4A1A-9C2C-5962460044E3";
paths = (
{
closed = 1;
nodes = (
"196 703 LINE",
"382 147 LINE",
"592 695 LINE",
"677 703 LINE",
"567 485 OFFCURVE",
"489 266 OFFCURVE",
"406 48 CURVE",
"412 13 LINE",
"316 -3 LINE",
"75 696 LINE"
);
},
{
closed = 1;
nodes = (
"471 703 LINE",
"645 162 LINE",
"822 695 LINE",
"901 703 LINE",
"836 542 OFFCURVE",
"760 348 OFFCURVE",
"686 96 CURVE SMOOTH",
"677 66 OFFCURVE",
"671 33 OFFCURVE",
"670 13 CURVE",
"583 -3 LINE",
"518 234 OFFCURVE",
"439 467 OFFCURVE",
"353 696 CURVE"
);
}
);
width = 976;
}
);
unicode = 0057;
},
{
glyphname = X;
lastChange = "2021-04-12 13:36:45 +0000";
layers = (
{
backgroundImage = {
crop = "{{0, 0}, {591, 1000}}";
imagePath = "sample-uc/X.png";
locked = "1";
transform = "{1, 0, 0, 1, 14, -200}";
};
layerId = "E2AE1CAA-C3FF-4A1A-9C2C-5962460044E3";
paths = (
{
closed = 1;
nodes = (
"200 700 LINE",
"559 0 LINE",
"436 -8 LINE",
"75 692 LINE"
);
},
{
closed = 1;
nodes = (
"542 700 LINE",
"152 0 LINE",
"83 0 LINE",
"466 696 LINE"
);
}
);
width = 634;
}
);
unicode = 0058;
},
{
glyphname = Y;
lastChange = "2021-04-12 20:24:13 +0000";
layers = (
{
backgroundImage = {
crop = "{{0, 0}, {591, 1000}}";
imagePath = "sample-uc/Y.png";
locked = "1";
transform = "{1, 0, 0, 1, 31, -200}";
};
layerId = "E2AE1CAA-C3FF-4A1A-9C2C-5962460044E3";
paths = (
{
closed = 1;
nodes = (
"262 541 OFFCURVE",
"321 397 OFFCURVE",
"345 366 CURVE",
"481 695 LINE",
"551 695 LINE",
"486 564 OFFCURVE",
"428 429 OFFCURVE",
"375 291 CURVE",
"372 197 OFFCURVE",
"372 100 OFFCURVE",
"375 2 CURVE",
"262 -4 LINE",
"267 91 OFFCURVE",
"267 187 OFFCURVE",
"262 282 CURVE",
"75 677 LINE",
"197 704 LINE"
);
}
);
width = 626;
}
);
unicode = 0059;
},
{
glyphname = Z;
lastChange = "2021-04-12 13:49:29 +0000";
layers = (
{
backgroundImage = {
crop = "{{0, 0}, {591, 1000}}";
imagePath = "sample-uc/Z.png";
locked = "1";
transform = "{1, 0, 0, 1, 13, -200}";
};
layerId = "E2AE1CAA-C3FF-4A1A-9C2C-5962460044E3";
paths = (
{
closed = 1;
nodes = (
"237 698 OFFCURVE",
"376 698 OFFCURVE",
"514 698 CURVE",
"196 83 LINE",
"526 90 LINE",
"503 0 LINE",
"75 0 LINE",
"184 203 OFFCURVE",
"289 402 OFFCURVE",
"382 608 CURVE",
"280 611 OFFCURVE",
"178 609 OFFCURVE",
"76 602 CURVE",
"98 702 LINE"
);
}
);
width = 601;
}
);
unicode = 005A;
},
{
glyphname = J.001;
layers = (
{
backgroundImage = {
crop = "{{0, 0}, {405, 1000}}";
imagePath = "sample-uc/J.png";
locked = "1";
transform = "{1, 0, 0, 1, 0, -200}";
};
layerId = "E2AE1CAA-C3FF-4A1A-9C2C-5962460044E3";
paths = (
{
closed = 1;
nodes = (
"349 705 LINE",
"348 196 LINE",
"348 131 OFFCURVE",
"208 1 OFFCURVE",
"138 1 CURVE",
"38 84 LINE",
"132 132 LINE",
"151 103 OFFCURVE",
"189 72 OFFCURVE",
"218 72 CURVE",
"226 72 OFFCURVE",
"243 134 OFFCURVE",
"243 165 CURVE",
"241 697 LINE"
);
}
);
width = 600;
}
);
},
{
glyphname = O.001;
lastChange = "2021-04-21 09:04:34 +0000";
layers = (
{
backgroundImage = {
crop = "{{0, 0}, {720, 1000}}";
imagePath = O.png;
locked = "1";
transform = "{1, 0, 0, 1, 44, -200}";
};
layerId = "E2AE1CAA-C3FF-4A1A-9C2C-5962460044E3";
paths = (
{
closed = 1;
nodes = (
"521 4 OFFCURVE",
"664 160 OFFCURVE",
"690 212 CURVE SMOOTH",
"722 273 OFFCURVE",
"733 320 OFFCURVE",
"733 391 CURVE",
"733 562 OFFCURVE",
"599 709 OFFCURVE",
"441 709 CURVE",
"318 709 OFFCURVE",
"172 593 OFFCURVE",
"120 508 CURVE SMOOTH",
"91 461 OFFCURVE",
"75 395 OFFCURVE",
"75 331 CURVE",
"75 151 OFFCURVE",
"206 4 OFFCURVE",
"366 4 CURVE"
);
},
{
closed = 1;
nodes = (
"286 94 OFFCURVE",
"160 228 OFFCURVE",
"160 392 CURVE",
"160 463 OFFCURVE",
"188 548 OFFCURVE",
"223 580 CURVE SMOOTH",
"249 601 OFFCURVE",
"323 618 OFFCURVE",
"387 618 CURVE",
"531 618 OFFCURVE",
"649 485 OFFCURVE",
"649 322 CURVE",
"649 248 OFFCURVE",
"623 164 OFFCURVE",
"592 135 CURVE SMOOTH",
"567 112 OFFCURVE",
"499 94 OFFCURVE",
"441 94 CURVE"
);
}
);
width = 808;
}
);
},
{
glyphname = a;
lastChange = "2021-04-13 14:47:00 +0000";
layers = (
{
backgroundImage = {
crop = "{{0, 0}, {591, 1000}}";
imagePath = "sample-lc/a.png";
locked = "1";
transform = "{1, 0, 0, 1, -29, -200}";
};
layerId = "E2AE1CAA-C3FF-4A1A-9C2C-5962460044E3";
paths = (
{
closed = 1;
nodes = (
"322 58 LINE",
"322 0 LINE",
"432 0 LINE",
"432 315 LINE",
"432 417 OFFCURVE",
"369 472 OFFCURVE",
"253 472 CURVE",
"224 472 OFFCURVE",
"194 467 OFFCURVE",
"165 461 CURVE",
"79 372 LINE",
"88 360 LINE",
"124 380 OFFCURVE",
"167 394 OFFCURVE",
"207 394 CURVE",
"290 394 OFFCURVE",
"325 360 OFFCURVE",
"325 280 CURVE",
"273 280 LINE",
"212 280 OFFCURVE",
"155 257 OFFCURVE",
"110 213 CURVE SMOOTH",
"81 184 OFFCURVE",
"75 140 OFFCURVE",
"75 103 CURVE",
"75 36 OFFCURVE",
"127 -8 OFFCURVE",
"204 -8 CURVE"
);
},
{
closed = 1;
nodes = (
"215 75 OFFCURVE",
"162 116 OFFCURVE",
"162 167 CURVE",
"162 186 OFFCURVE",
"165 205 OFFCURVE",
"177 222 CURVE",
"225 227 OFFCURVE",
"275 222 OFFCURVE",
"325 215 CURVE",
"325 78 LINE",
"280 75 LINE"
);
}
);
width = 507;
}
);
unicode = 0061;
},
{
glyphname = b;
lastChange = "2021-04-13 16:54:37 +0000";
layers = (
{
backgroundImage = {
crop = "{{0, 0}, {591, 1000}}";
imagePath = "sample-lc/b.png";
locked = "1";
transform = "{1, 0, 0, 1, -18, -200}";
};
layerId = "E2AE1CAA-C3FF-4A1A-9C2C-5962460044E3";
paths = (
{
closed = 1;
nodes = (
"250 -11 OFFCURVE",
"265 -9 OFFCURVE",
"281 -3 CURVE SMOOTH",
"312 9 OFFCURVE",
"373 52 OFFCURVE",
"404 84 CURVE SMOOTH",
"448 128 OFFCURVE",
"471 196 OFFCURVE",
"471 281 CURVE",
"471 396 OFFCURVE",
"415 469 OFFCURVE",
"307 469 CURVE SMOOTH",
"299 469 OFFCURVE",
"290 466 OFFCURVE",
"284 462 CURVE",
"182 402 LINE",
"175 408 LINE",
"176 690 LINE",
"75 687 LINE",
"79 467 OFFCURVE",
"79 248 OFFCURVE",
"75 28 CURVE",
"129 8 OFFCURVE",
"180 -11 OFFCURVE",
"234 -11 CURVE"
);
},
{
closed = 1;
nodes = (
"276 58 OFFCURVE",
"227 68 OFFCURVE",
"179 89 CURVE",
"175 139 OFFCURVE",
"175 190 OFFCURVE",
"175 240 CURVE",
"175 288 OFFCURVE",
"190 339 OFFCURVE",
"211 384 CURVE",
"220 392 OFFCURVE",
"235 398 OFFCURVE",
"247 398 CURVE",
"320 398 OFFCURVE",
"372 332 OFFCURVE",
"372 238 CURVE",
"372 178 OFFCURVE",
"367 116 OFFCURVE",
"328 57 CURVE"
);
}
);
width = 546;
}
);
unicode = 0062;
},
{
glyphname = c;
lastChange = "2021-04-13 18:14:04 +0000";
layers = (
{
backgroundImage = {
crop = "{{0, 0}, {591, 1000}}";
imagePath = "sample-lc/c.png";
locked = "1";
transform = "{1, 0, 0, 1, -22, -200}";
};
layerId = "E2AE1CAA-C3FF-4A1A-9C2C-5962460044E3";
paths = (
{
closed = 1;
nodes = (
"401 475 OFFCURVE",
"443 420 OFFCURVE",
"461 364 CURVE",
"365 319 LINE",
"342 383 OFFCURVE",
"309 411 OFFCURVE",
"252 411 CURVE",
"212 411 LINE",
"189 411 OFFCURVE",
"167 334 OFFCURVE",
"167 257 CURVE",
"167 145 OFFCURVE",
"247 71 OFFCURVE",
"366 71 CURVE",
"394 71 OFFCURVE",
"425 77 OFFCURVE",
"451 91 CURVE",
"457 79 LINE",
"423 49 OFFCURVE",
"390 27 OFFCURVE",
"353 9 CURVE SMOOTH",
"336 1 OFFCURVE",
"308 -4 OFFCURVE",
"286 -4 CURVE",
"159 -4 OFFCURVE",
"75 80 OFFCURVE",
"75 206 CURVE",
"75 278 OFFCURVE",
"98 351 OFFCURVE",
"132 390 CURVE SMOOTH",
"174 427 OFFCURVE",
"258 475 OFFCURVE",
"280 475 CURVE",
"328 475 LINE"
);
}
);
width = 536;
}
);
unicode = 0063;
},
{
glyphname = d;
lastChange = "2021-04-13 18:36:05 +0000";
layers = (
{
backgroundImage = {
crop = "{{0, 0}, {591, 1000}}";
imagePath = "sample-lc/d.png";
locked = "1";
transform = "{1, 0, 0, 1, 22, -200}";
};
layerId = "E2AE1CAA-C3FF-4A1A-9C2C-5962460044E3";
paths = (
{
closed = 1;
nodes = (
"263 0 LINE SMOOTH",
"267 0 OFFCURVE",
"278 4 OFFCURVE",
"282 6 CURVE",
"391 64 LINE",
"391 5 LINE",
"497 9 LINE",
"493 239 OFFCURVE",
"491 469 OFFCURVE",
"492 696 CURVE",
"386 692 LINE",
"390 616 OFFCURVE",
"393 540 OFFCURVE",
"393 466 CURVE",
"369 470 OFFCURVE",
"345 475 OFFCURVE",
"321 475 CURVE",
"302 475 OFFCURVE",
"279 470 OFFCURVE",
"263 464 CURVE SMOOTH",
"226 450 OFFCURVE",
"182 428 OFFCURVE",
"151 397 CURVE SMOOTH",
"102 349 OFFCURVE",
"75 266 OFFCURVE",
"75 200 CURVE",
"75 81 OFFCURVE",
"135 0 OFFCURVE",
"225 0 CURVE"
);
},
{
closed = 1;
nodes = (
"233 64 OFFCURVE",
"176 130 OFFCURVE",
"176 228 CURVE",
"176 290 OFFCURVE",
"190 349 OFFCURVE",
"219 411 CURVE",
"232 416 OFFCURVE",
"245 420 OFFCURVE",
"258 420 CURVE",
"302 420 OFFCURVE",
"349 397 OFFCURVE",
"391 373 CURVE",
"394 296 OFFCURVE",
"394 218 OFFCURVE",
"391 141 CURVE",
"366 83 OFFCURVE",
"348 64 OFFCURVE",
"318 64 CURVE"
);
}
);
width = 572;
}
);
unicode = 0064;
},
{
glyphname = e;
lastChange = "2021-04-13 18:53:30 +0000";
layers = (
{
backgroundImage = {
crop = "{{0, 0}, {591, 1000}}";
imagePath = "sample-lc/e.png";
locked = "1";
transform = "{1, 0, 0, 1, -36, -200}";
};
layerId = "E2AE1CAA-C3FF-4A1A-9C2C-5962460044E3";
paths = (
{
closed = 1;
nodes = (
"306 -5 OFFCURVE",
"328 -1 OFFCURVE",
"349 3 CURVE",
"462 86 LINE",
"453 95 LINE",
"426 82 OFFCURVE",
"398 69 OFFCURVE",
"370 69 CURVE",
"248 69 OFFCURVE",
"173 131 OFFCURVE",
"173 227 CURVE",
"267 230 LINE",
"348 227 LINE",
"458 296 LINE",
"459 304 OFFCURVE",
"462 313 OFFCURVE",
"462 321 CURVE",
"462 412 OFFCURVE",
"402 475 OFFCURVE",
"309 475 CURVE",
"297 475 OFFCURVE",
"280 472 OFFCURVE",
"270 469 CURVE SMOOTH",
"214 450 OFFCURVE",
"155 424 OFFCURVE",
"119 373 CURVE SMOOTH",
"90 332 OFFCURVE",
"75 273 OFFCURVE",
"75 204 CURVE",
"75 143 OFFCURVE",
"99 79 OFFCURVE",
"136 46 CURVE SMOOTH",
"173 13 OFFCURVE",
"235 -5 OFFCURVE",
"285 -5 CURVE"
);
},
{
closed = 1;
nodes = (
"173 288 OFFCURVE",
"173 297 OFFCURVE",
"173 306 CURVE",
"173 338 OFFCURVE",
"185 370 OFFCURVE",
"201 402 CURVE",
"212 409 OFFCURVE",
"227 410 OFFCURVE",
"239 410 CURVE",
"314 410 OFFCURVE",
"364 368 OFFCURVE",
"364 306 CURVE",
"364 290 OFFCURVE",
"358 280 OFFCURVE",
"349 280 CURVE",
"176 280 LINE"
);
}
);
width = 537;
}
);
unicode = 0065;
},
{
glyphname = f;
lastChange = "2021-04-18 07:19:31 +0000";
layers = (
{
backgroundImage = {
crop = "{{0, 0}, {460, 1000}}";
imagePath = "sample-lc/f.png";
locked = "1";
transform = "{1, 0, 0, 1, -5, -200}";
};
layerId = "E2AE1CAA-C3FF-4A1A-9C2C-5962460044E3";
paths = (
{
closed = 1;
nodes = (
"361 693 OFFCURVE",
"379 688 OFFCURVE",
"383 682 CURVE",
"319 605 LINE",
"304 614 OFFCURVE",
"283 620 OFFCURVE",
"265 620 CURVE",
"258 620 OFFCURVE",
"244 609 OFFCURVE",
"244 603 CURVE",
"244 1 LINE",
"141 0 LINE",
"141 479 LINE",
"141 511 OFFCURVE",
"145 549 OFFCURVE",
"166 575 CURVE SMOOTH",
"197 614 OFFCURVE",
"231 643 OFFCURVE",
"273 667 CURVE SMOOTH",
"297 681 OFFCURVE",
"326 693 OFFCURVE",
"348 693 CURVE"
);
},
{
closed = 1;
nodes = (
"353 450 LINE",
"353 441 LINE",
"304 401 LINE",
"81 401 LINE",
"75 406 LINE",
"115 450 LINE"
);
}
);
width = 458;
}
);
unicode = 0066;
},
{
glyphname = g;
lastChange = "2021-04-14 21:01:34 +0000";
layers = (
{
backgroundImage = {
crop = "{{0, 0}, {761, 1000}}";
imagePath = "sample-lc/g.png";
locked = "1";
transform = "{1, 0, 0, 1, -57, -300}";
};
layerId = "E2AE1CAA-C3FF-4A1A-9C2C-5962460044E3";
paths = (
{
closed = 1;
nodes = (
"114 100 OFFCURVE",
"80 42 OFFCURVE",
"80 16 CURVE",
"90 0 OFFCURVE",
"103 -11 OFFCURVE",
"123 -17 CURVE",
"153 -17 LINE",
"158 -25 LINE",
"82 -84 LINE",
"81 -94 OFFCURVE",
"80 -103 OFFCURVE",
"80 -113 CURVE",
"80 -160 OFFCURVE",
"107 -191 OFFCURVE",
"162 -217 CURVE SMOOTH",
"181 -226 OFFCURVE",
"204 -222 OFFCURVE",
"225 -222 CURVE",
"261 -222 OFFCURVE",
"301 -218 OFFCURVE",
"334 -202 CURVE SMOOTH",
"379 -180 OFFCURVE",
"415 -146 OFFCURVE",
"441 -109 CURVE SMOOTH",
"456 -87 OFFCURVE",
"457 -59 OFFCURVE",
"457 -34 CURVE",
"457 22 OFFCURVE",
"427 63 OFFCURVE",
"378 63 CURVE",
"180 63 LINE",
"165 63 OFFCURVE",
"151 79 OFFCURVE",
"151 95 CURVE",
"151 105 OFFCURVE",
"158 120 OFFCURVE",
"163 128 CURVE",
"147 135 LINE"
);
},
{
closed = 1;
nodes = (
"205 -145 OFFCURVE",
"169 -127 OFFCURVE",
"169 -85 CURVE",
"169 -62 OFFCURVE",
"176 -40 OFFCURVE",
"188 -17 CURVE",
"230 -11 OFFCURVE",
"272 -9 OFFCURVE",
"314 -9 CURVE",
"357 -9 OFFCURVE",
"380 -42 OFFCURVE",
"380 -104 CURVE",
"380 -133 OFFCURVE",
"353 -145 OFFCURVE",
"290 -145 CURVE"
);
},
{
closed = 1;
nodes = (
"228 173 OFFCURVE",
"159 219 OFFCURVE",
"159 288 CURVE",
"159 323 OFFCURVE",
"171 369 OFFCURVE",
"198 396 CURVE",
"213 402 OFFCURVE",
"231 404 OFFCURVE",
"247 404 CURVE",
"315 404 OFFCURVE",
"362 352 OFFCURVE",
"362 273 CURVE",
"362 240 OFFCURVE",
"353 201 OFFCURVE",
"332 173 CURVE"
);
},
{
closed = 1;
nodes = (
"139 111 OFFCURVE",
"237 111 CURVE",
"257 111 OFFCURVE",
"280 114 OFFCURVE",
"297 122 CURVE SMOOTH",
"343 145 OFFCURVE",
"390 177 OFFCURVE",
"420 214 CURVE SMOOTH",
"444 243 OFFCURVE",
"451 283 OFFCURVE",
"451 318 CURVE",
"451 352 OFFCURVE",
"440 390 OFFCURVE",
"419 421 CURVE",
"442 435 OFFCURVE",
"464 452 OFFCURVE",
"477 471 CURVE",
"391 469 LINE",
"361 469 OFFCURVE",
"332 473 OFFCURVE",
"302 473 CURVE",
"263 473 OFFCURVE",
"171 425 OFFCURVE",
"125 377 CURVE SMOOTH",
"95 345 OFFCURVE",
"75 295 OFFCURVE",
"75 255 CURVE",
"75 165 OFFCURVE"
);
}
);
width = 552;
}
);
unicode = 0067;
},
{
glyphname = h;
lastChange = "2021-04-13 18:03:56 +0000";
layers = (
{
backgroundImage = {
crop = "{{0, 0}, {460, 1000}}";
imagePath = "sample-lc/h.png";
locked = "1";
transform = "{1, 0, 0, 1, 35, -200}";
};
layerId = "E2AE1CAA-C3FF-4A1A-9C2C-5962460044E3";
paths = (
{
closed = 1;
nodes = (
"175 691 LINE",
"175 388 LINE",
"208 417 OFFCURVE",
"267 455 OFFCURVE",
"292 464 CURVE SMOOTH",
"300 467 OFFCURVE",
"309 467 OFFCURVE",
"317 467 CURVE",
"402 467 OFFCURVE",
"452 416 OFFCURVE",
"452 328 CURVE",
"452 0 LINE",
"350 0 LINE",
"355 93 OFFCURVE",
"356 184 OFFCURVE",
"356 276 CURVE",
"356 350 OFFCURVE",
"321 389 OFFCURVE",
"256 389 CURVE",
"242 389 OFFCURVE",
"228 387 OFFCURVE",
"215 383 CURVE",
"190 342 OFFCURVE",
"175 298 OFFCURVE",
"175 251 CURVE",
"175 168 OFFCURVE",
"176 85 OFFCURVE",
"179 0 CURVE",
"80 0 LINE",
"83 229 OFFCURVE",
"78 460 OFFCURVE",
"75 691 CURVE"
);
}
);
width = 527;
}
);
unicode = 0068;
},
{
glyphname = i;
lastChange = "2021-04-20 13:32:08 +0000";
layers = (
{
backgroundImage = {
crop = "{{0, 0}, {378, 1000}}";
imagePath = "sample-lc/i.png";
locked = "1";
transform = "{1, 0, 0, 1, -49, -200}";
};
layerId = "E2AE1CAA-C3FF-4A1A-9C2C-5962460044E3";
paths = (
{
closed = 1;
nodes = (
"224 621 LINE",
"149 555 LINE",
"75 586 LINE",
"147 661 LINE"
);
},
{
closed = 1;
nodes = (
"206 468 LINE",
"204 314 OFFCURVE",
"204 161 OFFCURVE",
"208 7 CURVE",
"101 7 LINE",
"106 157 OFFCURVE",
"108 308 OFFCURVE",
"105 462 CURVE"
);
}
);
width = 299;
}
);
unicode = 0069;
},
{
glyphname = j;
lastChange = "2021-04-19 21:36:34 +0000";
layers = (
{
backgroundImage = {
crop = "{{0, 0}, {367, 1000}}";
imagePath = "sample-lc/j.png";
locked = "1";
transform = "{1, 0, 0, 1, 5, -300}";
};
layerId = "E2AE1CAA-C3FF-4A1A-9C2C-5962460044E3";
paths = (
{
closed = 1;
nodes = (
"253 627 LINE",
"253 618 LINE",
"227 601 OFFCURVE",
"202 582 OFFCURVE",
"178 559 CURVE",
"111 585 LINE",
"111 594 LINE",
"133 619 OFFCURVE",
"155 642 OFFCURVE",
"179 661 CURVE"
);
},
{
closed = 1;
nodes = (
"234 469 LINE",
"231 304 OFFCURVE",
"231 138 OFFCURVE",
"234 -27 CURVE",
"234 -64 OFFCURVE",
"222 -113 OFFCURVE",
"190 -143 CURVE SMOOTH",
"161 -170 OFFCURVE",
"126 -192 OFFCURVE",
"84 -215 CURVE",
"75 -207 LINE",
"113 -172 LINE SMOOTH",
"129 -158 OFFCURVE",
"137 -108 OFFCURVE",
"137 -30 CURVE",
"137 466 LINE"
);
}
);
width = 328;
}
);
unicode = 006A;
},
{
glyphname = k;
lastChange = "2021-04-13 18:21:17 +0000";
layers = (
{
backgroundImage = {
crop = "{{0, 0}, {495, 1000}}";
imagePath = "sample-lc/k.png";
locked = "1";
transform = "{1, 0, 0, 1, 19, -200}";
};
layerId = "E2AE1CAA-C3FF-4A1A-9C2C-5962460044E3";
paths = (
{
closed = 1;
nodes = (
"176 692 LINE",
"176 244 LINE",
"186 244 LINE",
"354 454 LINE",
"443 463 LINE",
"273 278 LINE",
"273 259 LINE",
"469 33 LINE",
"370 -13 LINE",
"186 209 LINE",
"174 209 LINE",
"174 139 OFFCURVE",
"176 70 OFFCURVE",
"180 0 CURVE",
"78 0 LINE",
"78 230 OFFCURVE",
"76 460 OFFCURVE",
"75 690 CURVE"
);
}
);
width = 544;
}
);
unicode = 006B;
},
{
glyphname = l;
lastChange = "2021-04-13 14:51:22 +0000";
layers = (
{
backgroundImage = {
crop = "{{0, 0}, {407, 1000}}";
imagePath = "sample-lc/l.png";
locked = "1";
transform = "{1, 0, 0, 1, -65, -200}";
};
layerId = "E2AE1CAA-C3FF-4A1A-9C2C-5962460044E3";
paths = (
{
closed = 1;
nodes = (
"176 700 LINE",
"174 471 OFFCURVE",
"175 238 OFFCURVE",
"179 0 CURVE",
"77 0 LINE",
"80 228 OFFCURVE",
"77 464 OFFCURVE",
"75 699 CURVE"
);
}
);
width = 254;
}
);
unicode = 006C;
},
{
glyphname = m;
lastChange = "2021-04-13 15:11:35 +0000";
layers = (
{
backgroundImage = {
crop = "{{0, 0}, {761, 1000}}";
imagePath = "sample-lc/m.png";
locked = "1";
transform = "{1, 0, 0, 1, -36, -200}";
};
layerId = "E2AE1CAA-C3FF-4A1A-9C2C-5962460044E3";
paths = (
{
closed = 1;
nodes = (
"631 479 OFFCURVE",
"687 433 OFFCURVE",
"687 386 CURVE",
"693 0 LINE",
"593 0 LINE",
"597 107 OFFCURVE",
"596 213 OFFCURVE",
"590 320 CURVE",
"590 364 OFFCURVE",
"552 398 OFFCURVE",
"506 398 CURVE",
"479 398 LINE",
"454 367 OFFCURVE",
"431 323 OFFCURVE",
"431 288 CURVE",
"419 288 LINE",
"419 398 LINE",
"455 418 OFFCURVE",
"501 444 OFFCURVE",
"537 465 CURVE",
"549 469 OFFCURVE",
"562 479 OFFCURVE",
"574 479 CURVE"
);
},
{
closed = 1;
nodes = (
"183 472 LINE",
"181 405 LINE",
"289 472 LINE SMOOTH",
"296 476 OFFCURVE",
"309 480 OFFCURVE",
"315 480 CURVE SMOOTH",
"374 480 OFFCURVE",
"431 428 OFFCURVE",
"431 379 CURVE SMOOTH",
"431 0 LINE",
"332 0 LINE",
"332 325 LINE",
"332 363 OFFCURVE",
"299 400 OFFCURVE",
"265 400 CURVE",
"247 400 OFFCURVE",
"232 400 OFFCURVE",
"214 398 CURVE",
"197 371 OFFCURVE",
"179 339 OFFCURVE",
"179 308 CURVE",
"177 205 OFFCURVE",
"177 102 OFFCURVE",
"178 0 CURVE",
"79 0 LINE",
"81 157 OFFCURVE",
"77 313 OFFCURVE",
"75 472 CURVE"
);
}
);
width = 768;
}
);
unicode = 006D;
},
{
glyphname = n;
lastChange = "2021-04-17 07:51:00 +0000";
layers = (
{
backgroundImage = {
crop = "{{0, 0}, {473, 1000}}";
imagePath = "sample-lc/n.png";
locked = "1";
transform = "{1, 0, 0, 1, 38, -200}";
};
layerId = "E2AE1CAA-C3FF-4A1A-9C2C-5962460044E3";
paths = (
{
closed = 1;
nodes = (
"177 452 LINE",
"177 388 LINE",
"285 457 LINE SMOOTH",
"293 462 OFFCURVE",
"305 467 OFFCURVE",
"314 467 CURVE",
"388 467 OFFCURVE",
"449 418 OFFCURVE",
"449 357 CURVE",
"449 0 LINE",
"352 0 LINE",
"355 92 OFFCURVE",
"355 191 OFFCURVE",
"352 296 CURVE",
"352 347 OFFCURVE",
"308 389 OFFCURVE",
"255 389 CURVE",
"238 389 OFFCURVE",
"221 384 OFFCURVE",
"205 378 CURVE",
"181 326 OFFCURVE",
"173 261 OFFCURVE",
"173 202 CURVE",
"177 0 LINE",
"75 0 LINE",
"81 130 OFFCURVE",
"77 292 OFFCURVE",
"75 452 CURVE"
);
}
);
width = 524;
}
);
unicode = 006E;
},
{
glyphname = o;
lastChange = "2021-04-17 07:26:23 +0000";
layers = (
{
backgroundImage = {
crop = "{{0, 0}, {513, 1000}}";
imagePath = "sample-lc/o.png";
locked = "1";
transform = "{1, 0, 0, 1, 48, -200}";
};
layerId = "E2AE1CAA-C3FF-4A1A-9C2C-5962460044E3";
paths = (
{
closed = 1;
nodes = (
"289 -12 OFFCURVE",
"311 -9 OFFCURVE",
"327 -1 CURVE SMOOTH",
"371 21 OFFCURVE",
"439 72 OFFCURVE",
"462 101 CURVE SMOOTH",
"491 137 OFFCURVE",
"514 214 OFFCURVE",
"514 272 CURVE",
"514 393 OFFCURVE",
"439 474 OFFCURVE",
"326 474 CURVE",
"301 474 OFFCURVE",
"275 470 OFFCURVE",
"267 465 CURVE SMOOTH",
"215 436 OFFCURVE",
"163 398 OFFCURVE",
"126 353 CURVE SMOOTH",
"95 316 OFFCURVE",
"75 254 OFFCURVE",
"75 199 CURVE",
"75 97 OFFCURVE",
"136 -12 OFFCURVE",
"270 -12 CURVE"
);
},
{
closed = 1;
nodes = (
"234 71 OFFCURVE",
"162 141 OFFCURVE",
"162 246 CURVE",
"162 292 OFFCURVE",
"177 342 OFFCURVE",
"195 383 CURVE",
"215 398 OFFCURVE",
"242 401 OFFCURVE",
"265 401 CURVE",
"359 401 OFFCURVE",
"422 335 OFFCURVE",
"422 236 CURVE",
"422 182 OFFCURVE",
"410 131 OFFCURVE",
"393 77 CURVE",
"376 72 OFFCURVE",
"360 71 OFFCURVE",
"343 71 CURVE"
);
}
);
width = 589;
}
);
unicode = 006F;
},
{
glyphname = p;
lastChange = "2021-04-19 09:25:45 +0000";
layers = (
{
backgroundImage = {
crop = "{{0, 0}, {498, 1000}}";
imagePath = "sample-lc/p.png";
locked = "1";
transform = "{1, 0, 0, 1, 51, -300}";
};
layerId = "E2AE1CAA-C3FF-4A1A-9C2C-5962460044E3";
paths = (
{
closed = 1;
nodes = (
"183 -217 LINE",
"179 -143 OFFCURVE",
"177 -68 OFFCURVE",
"177 6 CURVE",
"202 0 OFFCURVE",
"227 -3 OFFCURVE",
"247 -3 CURVE",
"264 -3 OFFCURVE",
"279 2 OFFCURVE",
"289 8 CURVE SMOOTH",
"338 35 OFFCURVE",
"380 57 OFFCURVE",
"415 98 CURVE SMOOTH",
"458 149 OFFCURVE",
"473 213 OFFCURVE",
"473 271 CURVE",
"473 403 OFFCURVE",
"413 474 OFFCURVE",
"301 474 CURVE",
"179 408 LINE",
"179 465 LINE",
"75 465 LINE",
"80 232 OFFCURVE",
"80 5 OFFCURVE",
"81 -223 CURVE"
);
},
{
closed = 1;
nodes = (
"266 67 OFFCURVE",
"224 82 OFFCURVE",
"176 96 CURVE",
"176 264 LINE",
"176 312 OFFCURVE",
"193 353 OFFCURVE",
"215 392 CURVE",
"226 398 OFFCURVE",
"238 401 OFFCURVE",
"250 401 CURVE",
"323 401 OFFCURVE",
"372 335 OFFCURVE",
"372 235 CURVE",
"372 179 OFFCURVE",
"360 129 OFFCURVE",
"336 73 CURVE",
"327 69 OFFCURVE",
"318 67 OFFCURVE",
"309 67 CURVE"
);
}
);
width = 548;
}
);
unicode = 0070;
},
{
glyphname = q;
lastChange = "2021-04-20 13:56:05 +0000";
layers = (
{
backgroundImage = {
crop = "{{0, 0}, {498, 1000}}";
imagePath = "sample-lc/q.png";
locked = "1";
transform = "{1, 0, 0, 1, 26, -300}";
};
layerId = "E2AE1CAA-C3FF-4A1A-9C2C-5962460044E3";
paths = (
{
closed = 1;
nodes = (
"480 -214 LINE",
"476 15 OFFCURVE",
"474 243 OFFCURVE",
"476 472 CURVE",
"377 455 LINE",
"349 465 OFFCURVE",
"321 474 OFFCURVE",
"293 474 CURVE",
"235 474 OFFCURVE",
"152 423 OFFCURVE",
"118 376 CURVE SMOOTH",
"83 328 OFFCURVE",
"75 260 OFFCURVE",
"75 202 CURVE",
"75 174 OFFCURVE",
"79 145 OFFCURVE",
"90 117 CURVE SMOOTH",
"105 79 OFFCURVE",
"136 42 OFFCURVE",
"176 18 CURVE SMOOTH",
"192 8 OFFCURVE",
"214 2 OFFCURVE",
"233 2 CURVE",
"281 2 OFFCURVE",
"333 31 OFFCURVE",
"376 53 CURVE",
"379 -42 OFFCURVE",
"380 -134 OFFCURVE",
"374 -218 CURVE"
);
},
{
closed = 1;
nodes = (
"246 73 OFFCURVE",
"166 161 OFFCURVE",
"166 249 CURVE",
"166 304 OFFCURVE",
"182 359 OFFCURVE",
"202 414 CURVE",
"275 414 OFFCURVE",
"317 403 OFFCURVE",
"371 369 CURVE",
"378 291 OFFCURVE",
"380 213 OFFCURVE",
"375 137 CURVE",
"375 99 OFFCURVE",
"354 73 OFFCURVE",
"323 73 CURVE"
);
}
);
width = 555;
}
);
unicode = 0071;
},
{
glyphname = r;
lastChange = "2021-04-18 07:06:47 +0000";
layers = (
{
backgroundImage = {
crop = "{{0, 0}, {422, 1000}}";
imagePath = "sample-lc/r.png";
locked = "1";
transform = "{1, 0, 0, 1, -4, -200}";
};
layerId = "E2AE1CAA-C3FF-4A1A-9C2C-5962460044E3";
paths = (
{
closed = 1;
nodes = (
"179 397 LINE",
"201 417 OFFCURVE",
"224 435 OFFCURVE",
"247 452 CURVE",
"259 459 OFFCURVE",
"271 472 OFFCURVE",
"283 472 CURVE",
"309 472 OFFCURVE",
"359 429 OFFCURVE",
"362 390 CURVE",
"274 335 LINE",
"264 361 OFFCURVE",
"237 394 OFFCURVE",
"219 394 CURVE",
"199 394 OFFCURVE",
"179 327 OFFCURVE",
"180 260 CURVE",
"176 174 OFFCURVE",
"176 86 OFFCURVE",
"180 0 CURVE",
"75 0 LINE",
"81 149 OFFCURVE",
"79 303 OFFCURVE",
"75 457 CURVE",
"179 460 LINE"
);
}
);
width = 437;
}
);
unicode = 0072;
},
{
glyphname = s;
lastChange = "2021-04-19 21:54:24 +0000";
layers = (
{
backgroundImage = {
crop = "{{0, 0}, {422, 1000}}";
imagePath = "sample-lc/s.png";
locked = "1";
transform = "{1, 0, 0, 1, 27, -200}";
};
layerId = "E2AE1CAA-C3FF-4A1A-9C2C-5962460044E3";
paths = (
{
closed = 1;
nodes = (
"319 478 OFFCURVE",
"377 431 OFFCURVE",
"377 385 CURVE",
"301 344 LINE SMOOTH",
"295 341 OFFCURVE",
"288 341 OFFCURVE",
"282 341 CURVE",
"282 376 OFFCURVE",
"239 414 OFFCURVE",
"199 414 CURVE",
"174 414 OFFCURVE",
"160 399 OFFCURVE",
"160 366 CURVE",
"160 325 OFFCURVE",
"182 306 OFFCURVE",
"272 276 CURVE SMOOTH",
"362 245 OFFCURVE",
"384 224 OFFCURVE",
"384 173 CURVE",
"384 145 OFFCURVE",
"370 94 OFFCURVE",
"347 80 CURVE SMOOTH",
"233 11 LINE",
"222 5 OFFCURVE",
"210 2 OFFCURVE",
"199 2 CURVE",
"132 2 OFFCURVE",
"77 48 OFFCURVE",
"77 104 CURVE",
"168 152 LINE",
"176 102 OFFCURVE",
"218 62 OFFCURVE",
"258 62 CURVE",
"275 62 OFFCURVE",
"287 88 OFFCURVE",
"287 115 CURVE",
"287 168 OFFCURVE",
"269 186 OFFCURVE",
"199 204 CURVE SMOOTH",
"99 234 OFFCURVE",
"75 256 OFFCURVE",
"75 312 CURVE",
"75 339 OFFCURVE",
"85 379 OFFCURVE",
"110 396 CURVE SMOOTH",
"218 467 LINE",
"229 473 OFFCURVE",
"249 478 OFFCURVE",
"261 478 CURVE"
);
}
);
width = 459;
}
);
unicode = 0073;
},
{
glyphname = t;
lastChange = "2021-04-20 09:38:15 +0000";
layers = (
{
backgroundImage = {
crop = "{{0, 0}, {422, 1000}}";
imagePath = "sample-lc/t.png";
locked = "1";
transform = "{1, 0, 0, 1, 9, -200}";
};
layerId = "E2AE1CAA-C3FF-4A1A-9C2C-5962460044E3";
paths = (
{
closed = 1;
nodes = (
"238 581 LINE",
"233 432 OFFCURVE",
"233 282 OFFCURVE",
"236 133 CURVE",
"236 103 OFFCURVE",
"267 76 OFFCURVE",
"304 76 CURVE",
"323 76 OFFCURVE",
"342 83 OFFCURVE",
"360 91 CURVE",
"364 80 LINE",
"274 21 LINE SMOOTH",
"256 9 OFFCURVE",
"239 3 OFFCURVE",
"213 3 CURVE",
"170 3 OFFCURVE",
"141 21 OFFCURVE",
"141 49 CURVE",
"139 546 LINE"
);
},
{
closed = 1;
nodes = (
"356 458 LINE",
"361 446 LINE",
"342 436 OFFCURVE",
"327 421 OFFCURVE",
"313 406 CURVE",
"81 409 LINE",
"75 416 LINE",
"114 456 LINE"
);
}
);
width = 439;
}
);
unicode = 0074;
},
{
glyphname = u;
lastChange = "2021-04-19 07:58:41 +0000";
layers = (
{
backgroundImage = {
crop = "{{0, 0}, {422, 1000}}";
imagePath = "sample-lc/u.png";
locked = "1";
transform = "{1, 0, 0, 1, 57, -200}";
};
layerId = "E2AE1CAA-C3FF-4A1A-9C2C-5962460044E3";
paths = (
{
closed = 1;
nodes = (
"174 465 LINE",
"168 385 OFFCURVE",
"166 302 OFFCURVE",
"168 218 CURVE",
"168 125 OFFCURVE",
"204 75 OFFCURVE",
"270 75 CURVE",
"283 75 OFFCURVE",
"297 78 OFFCURVE",
"310 82 CURVE",
"335 130 OFFCURVE",
"349 175 OFFCURVE",
"349 221 CURVE",
"349 302 OFFCURVE",
"349 383 OFFCURVE",
"346 462 CURVE",
"442 467 LINE",
"440 315 OFFCURVE",
"440 160 OFFCURVE",
"444 8 CURVE",
"346 11 LINE",
"346 74 LINE",
"237 7 LINE",
"229 2 OFFCURVE",
"222 0 OFFCURVE",
"214 0 CURVE",
"131 0 OFFCURVE",
"75 49 OFFCURVE",
"75 123 CURVE",
"75 464 LINE"
);
}
);
width = 519;
}
);
unicode = 0075;
},
{
glyphname = v;
lastChange = "2021-04-20 10:45:44 +0000";
layers = (
{
backgroundImage = {
crop = "{{0, 0}, {493, 1000}}";
imagePath = "sample-lc/v.png";
locked = "1";
transform = "{1, 0, 0, 1, 34, -200}";
};
layerId = "E2AE1CAA-C3FF-4A1A-9C2C-5962460044E3";
paths = (
{
closed = 1;
nodes = (
"181 477 LINE",
"302 141 LINE",
"310 144 LINE",
"432 460 LINE",
"497 466 LINE",
"444 340 OFFCURVE",
"391 212 OFFCURVE",
"347 79 CURVE SMOOTH",
"343 66 OFFCURVE",
"339 39 OFFCURVE",
"344 19 CURVE",
"244 1 LINE",
"192 154 OFFCURVE",
"135 307 OFFCURVE",
"75 460 CURVE"
);
}
);
width = 572;
}
);
unicode = 0076;
},
{
glyphname = w;
lastChange = "2021-04-20 10:22:40 +0000";
layers = (
{
backgroundImage = {
crop = "{{0, 0}, {648, 1000}}";
imagePath = "sample-lc/w.png";
locked = "1";
transform = "{1, 0, 0, 1, 37, -200}";
};
layerId = "E2AE1CAA-C3FF-4A1A-9C2C-5962460044E3";
paths = (
{
closed = 1;
nodes = (
"182 471 LINE",
"183 449 OFFCURVE",
"187 426 OFFCURVE",
"192 404 CURVE SMOOTH",
"254 140 LINE",
"260 137 LINE",
"339 430 LINE",
"368 323 LINE",
"301 83 LINE SMOOTH",
"295 60 OFFCURVE",
"290 37 OFFCURVE",
"289 12 CURVE",
"195 4 LINE",
"75 454 LINE"
);
},
{
closed = 1;
nodes = (
"428 465 LINE",
"499 149 LINE",
"507 146 LINE",
"584 459 LINE",
"650 463 LINE",
"546 91 LINE SMOOTH",
"538 64 OFFCURVE",
"533 38 OFFCURVE",
"530 11 CURVE",
"437 3 LINE",
"402 155 OFFCURVE",
"364 304 OFFCURVE",
"323 454 CURVE"
);
}
);
width = 725;
}
);
unicode = 0077;
},
{
glyphname = x;
lastChange = "2021-04-20 10:49:55 +0000";
layers = (
{
backgroundImage = {
crop = "{{0, 0}, {498, 1000}}";
imagePath = "sample-lc/x.png";
locked = "1";
transform = "{1, 0, 0, 1, 39, -200}";
};
layerId = "E2AE1CAA-C3FF-4A1A-9C2C-5962460044E3";
paths = (
{
closed = 1;
nodes = (
"181 475 LINE",
"278 323 OFFCURVE",
"379 172 OFFCURVE",
"483 24 CURVE",
"373 -3 LINE",
"277 152 OFFCURVE",
"177 304 OFFCURVE",
"76 456 CURVE"
);
},
{
closed = 1;
nodes = (
"469 465 LINE",
"469 452 LINE",
"133 9 LINE",
"75 9 LINE",
"75 18 LINE",
"187 164 OFFCURVE",
"296 311 OFFCURVE",
"404 460 CURVE"
);
}
);
width = 558;
}
);
unicode = 0078;
},
{
glyphname = y;
lastChange = "2021-04-19 14:56:32 +0000";
layers = (
{
backgroundImage = {
crop = "{{0, 0}, {498, 1000}}";
imagePath = "sample-lc/y.png";
locked = "1";
transform = "{1, 0, 0, 1, 40, -300}";
};
layerId = "E2AE1CAA-C3FF-4A1A-9C2C-5962460044E3";
paths = (
{
closed = 1;
nodes = (
"182 472 LINE",
"226 360 OFFCURVE",
"271 248 OFFCURVE",
"317 150 CURVE",
"325 150 LINE",
"438 460 LINE",
"508 465 LINE",
"419 262 OFFCURVE",
"331 26 OFFCURVE",
"242 -213 CURVE",
"163 -217 LINE",
"160 -209 LINE",
"192 -179 OFFCURVE",
"228 -98 OFFCURVE",
"265 3 CURVE",
"75 459 LINE"
);
}
);
width = 583;
}
);
unicode = 0079;
},
{
glyphname = z;
lastChange = "2021-04-20 13:53:18 +0000";
layers = (
{
backgroundImage = {
crop = "{{0, 0}, {498, 1000}}";
imagePath = "sample-lc/z.png";
locked = "1";
transform = "{1, 0, 0, 1, 12, -200}";
};
layerId = "E2AE1CAA-C3FF-4A1A-9C2C-5962460044E3";
paths = (
{
closed = 1;
nodes = (
"192 461 OFFCURVE",
"293 462 OFFCURVE",
"400 463 CURVE",
"405 453 LINE",
"326 337 OFFCURVE",
"253 219 OFFCURVE",
"184 99 CURVE",
"184 88 LINE",
"348 88 LINE SMOOTH",
"373 88 OFFCURVE",
"400 92 OFFCURVE",
"425 97 CURVE",
"398 8 LINE",
"300 12 OFFCURVE",
"186 9 OFFCURVE",
"75 8 CURVE",
"75 17 LINE",
"298 383 LINE",
"82 383 LINE",
"104 465 LINE"
);
}
);
width = 500;
}
);
unicode = 007A;
},
{
glyphname = z.001;
layers = (
{
backgroundImage = {
crop = "{{0, 0}, {498, 1000}}";
imagePath = "sample-lc/z.png";
transform = "{1, 0, 0, 1, 0, -200}";
};
layerId = "E2AE1CAA-C3FF-4A1A-9C2C-5962460044E3";
paths = (
{
closed = 1;
nodes = (
"388 461 LINE",
"392 454 LINE",
"172 99 LINE",
"171 88 LINE",
"336 88 LINE",
"410 96 LINE",
"383 9 LINE",
"63 8 LINE",
"63 17 LINE",
"286 383 LINE",
"70 383 LINE",
"92 462 LINE"
);
}
);
width = 600;
}
);
},
{
glyphname = zero;
lastChange = "2021-04-21 19:01:38 +0000";
layers = (
{
backgroundImage = {
crop = "{{0, 0}, {571, 1000}}";
imagePath = "sample-num/zero.png";
locked = "1";
transform = "{1, 0, 0, 1, 31, -200}";
};
layerId = "E2AE1CAA-C3FF-4A1A-9C2C-5962460044E3";
paths = (
{
closed = 1;
nodes = (
"311 -4 OFFCURVE",
"327 -1 OFFCURVE",
"342 6 CURVE SMOOTH",
"375 21 OFFCURVE",
"441 71 OFFCURVE",
"472 111 CURVE SMOOTH",
"523 176 OFFCURVE",
"557 289 OFFCURVE",
"557 392 CURVE",
"557 572 OFFCURVE",
"457 707 OFFCURVE",
"323 707 CURVE",
"311 707 OFFCURVE",
"295 704 OFFCURVE",
"286 697 CURVE SMOOTH",
"226 651 OFFCURVE",
"180 609 OFFCURVE",
"134 555 CURVE SMOOTH",
"99 512 OFFCURVE",
"75 411 OFFCURVE",
"75 302 CURVE",
"75 118 OFFCURVE",
"163 -4 OFFCURVE",
"295 -4 CURVE"
);
},
{
closed = 1;
nodes = (
"237 95 OFFCURVE",
"161 191 OFFCURVE",
"156 380 CURVE",
"156 452 OFFCURVE",
"176 525 OFFCURVE",
"205 597 CURVE",
"220 607 OFFCURVE",
"239 613 OFFCURVE",
"256 613 CURVE",
"385 613 OFFCURVE",
"471 493 OFFCURVE",
"471 314 CURVE",
"471 242 OFFCURVE",
"457 169 OFFCURVE",
"426 97 CURVE",
"413 92 OFFCURVE",
"401 89 OFFCURVE",
"388 89 CURVE"
);
}
);
width = 632;
}
);
unicode = 0030;
},
{
glyphname = one;
lastChange = "2021-04-22 09:24:29 +0000";
layers = (
{
backgroundImage = {
crop = "{{0, 0}, {498, 1000}}";
imagePath = "sample-num/one.png";
locked = "1";
transform = "{1, 0, 0, 1, -138, -200}";
};
layerId = "E2AE1CAA-C3FF-4A1A-9C2C-5962460044E3";
paths = (
{
closed = 1;
nodes = (
"175 701 LINE",
"183 693 LINE",
"181 464 OFFCURVE",
"181 238 OFFCURVE",
"185 17 CURVE",
"82 11 LINE",
"88 231 OFFCURVE",
"85 450 OFFCURVE",
"75 670 CURVE"
);
}
);
width = 260;
}
);
unicode = 0031;
},
{
glyphname = two;
lastChange = "2021-04-22 18:25:51 +0000";
layers = (
{
backgroundImage = {
crop = "{{0, 0}, {498, 1000}}";
imagePath = "sample-num/two.png";
locked = "1";
transform = "{1, 0, 0, 1, 42, -200}";
};
layerId = "E2AE1CAA-C3FF-4A1A-9C2C-5962460044E3";
paths = (
{
closed = 1;
nodes = (
"370 707 OFFCURVE",
"458 607 OFFCURVE",
"458 476 CURVE",
"458 355 OFFCURVE",
"412 234 OFFCURVE",
"275 116 CURVE",
"282 106 LINE",
"345 106 OFFCURVE",
"412 109 OFFCURVE",
"473 116 CURVE",
"445 11 LINE",
"328 14 OFFCURVE",
"204 13 OFFCURVE",
"81 10 CURVE",
"75 18 LINE",
"103 102 LINE",
"161 115 OFFCURVE",
"223 131 OFFCURVE",
"263 165 CURVE SMOOTH",
"315 209 OFFCURVE",
"364 314 OFFCURVE",
"364 406 CURVE",
"364 528 OFFCURVE",
"294 614 OFFCURVE",
"189 614 CURVE",
"155 614 OFFCURVE",
"113 602 OFFCURVE",
"86 583 CURVE",
"78 584 LINE",
"77 593 LINE",
"120 647 OFFCURVE",
"138 666 OFFCURVE",
"169 687 CURVE SMOOTH",
"185 698 OFFCURVE",
"223 707 OFFCURVE",
"263 707 CURVE"
);
}
);
width = 548;
}
);
unicode = 0032;
},
{
glyphname = three;
lastChange = "2021-04-26 13:14:20 +0000";
layers = (
{
backgroundImage = {
crop = "{{0, 0}, {498, 1000}}";
imagePath = "sample-num/three.png";
locked = "1";
transform = "{1, 0, 0, 1, 30, -200}";
};
layerId = "E2AE1CAA-C3FF-4A1A-9C2C-5962460044E3";
paths = (
{
closed = 1;
nodes = (
"358 700 OFFCURVE",
"419 638 OFFCURVE",
"419 548 CURVE",
"419 489 OFFCURVE",
"388 420 OFFCURVE",
"316 382 CURVE",
"393 346 OFFCURVE",
"434 283 OFFCURVE",
"434 202 CURVE",
"434 179 OFFCURVE",
"430 152 OFFCURVE",
"420 132 CURVE SMOOTH",
"384 58 OFFCURVE",
"298 -2 OFFCURVE",
"227 -2 CURVE",
"169 -2 OFFCURVE",
"114 24 OFFCURVE",
"75 72 CURVE",
"152 148 LINE",
"188 110 OFFCURVE",
"234 71 OFFCURVE",
"275 71 CURVE",
"293 71 OFFCURVE",
"311 73 OFFCURVE",
"329 77 CURVE",
"337 101 OFFCURVE",
"343 126 OFFCURVE",
"343 154 CURVE",
"343 242 OFFCURVE",
"259 318 OFFCURVE",
"159 318 CURVE",
"138 318 OFFCURVE",
"123 317 OFFCURVE",
"105 314 CURVE",
"105 320 LINE",
"188 400 LINE",
"191 403 OFFCURVE",
"204 406 OFFCURVE",
"220 406 CURVE",
"236 406 OFFCURVE",
"257 406 OFFCURVE",
"287 396 CURVE",
"309 432 OFFCURVE",
"315 467 OFFCURVE",
"315 503 CURVE",
"315 576 OFFCURVE",
"266 624 OFFCURVE",
"193 624 CURVE",
"168 624 OFFCURVE",
"130 615 OFFCURVE",
"103 604 CURVE",
"103 614 LINE",
"175 677 LINE",
"194 692 OFFCURVE",
"236 700 OFFCURVE",
"266 700 CURVE"
);
}
);
width = 509;
}
);
unicode = 0033;
},
{
glyphname = four;
lastChange = "2021-04-22 15:00:45 +0000";
layers = (
{
backgroundImage = {
crop = "{{0, 0}, {498, 1000}}";
imagePath = "sample-num/four.png";
locked = "1";
transform = "{1, 0, 0, 1, 49, -200}";
};
layerId = "E2AE1CAA-C3FF-4A1A-9C2C-5962460044E3";
paths = (
{
closed = 1;
nodes = (
"75 244 LINE",
"161 386 OFFCURVE",
"250 530 OFFCURVE",
"323 664 CURVE",
"325 599 LINE",
"155 313 LINE",
"162 311 LINE",
"506 311 LINE",
"476 230 LINE",
"427 237 OFFCURVE",
"209 233 OFFCURVE",
"75 233 CURVE"
);
},
{
closed = 1;
nodes = (
"422 703 LINE",
"421 473 OFFCURVE",
"423 245 OFFCURVE",
"427 16 CURVE",
"326 11 LINE",
"331 233 OFFCURVE",
"333 454 OFFCURVE",
"318 671 CURVE"
);
}
);
width = 581;
}
);
unicode = 0034;
},
{
glyphname = five;
lastChange = "2021-04-24 10:27:31 +0000";
layers = (
{
backgroundImage = {
crop = "{{0, 0}, {498, 1000}}";
imagePath = "sample-num/five.png";
locked = "1";
transform = "{1, 0, 0, 1, 13, -200}";
};
layerId = "E2AE1CAA-C3FF-4A1A-9C2C-5962460044E3";
paths = (
{
closed = 1;
nodes = (
"393 692 LINE",
"367 604 LINE",
"136 606 LINE",
"137 424 LINE",
"165 438 OFFCURVE",
"204 451 OFFCURVE",
"237 451 CURVE",
"356 451 OFFCURVE",
"420 387 OFFCURVE",
"420 267 CURVE",
"420 235 OFFCURVE",
"413 198 OFFCURVE",
"397 171 CURVE SMOOTH",
"365 116 OFFCURVE",
"327 63 OFFCURVE",
"272 19 CURVE SMOOTH",
"251 2 OFFCURVE",
"219 -1 OFFCURVE",
"193 -1 CURVE",
"153 -1 OFFCURVE",
"113 16 OFFCURVE",
"75 36 CURVE",
"149 126 LINE",
"182 107 OFFCURVE",
"220 93 OFFCURVE",
"261 93 CURVE",
"284 93 OFFCURVE",
"306 103 OFFCURVE",
"329 114 CURVE",
"337 138 OFFCURVE",
"340 165 OFFCURVE",
"340 191 CURVE",
"340 286 OFFCURVE",
"270 362 OFFCURVE",
"183 362 CURVE",
"155 362 OFFCURVE",
"124 351 OFFCURVE",
"99 339 CURVE",
"83 339 LINE",
"83 693 LINE"
);
}
);
width = 495;
}
);
unicode = 0035;
},
{
glyphname = six;
lastChange = "2021-04-25 07:14:07 +0000";
layers = (
{
backgroundImage = {
crop = "{{0, 0}, {498, 1000}}";
imagePath = "sample-num/six.png";
locked = "1";
transform = "{1, 0, 0, 1, 20, -200}";
};
layerId = "E2AE1CAA-C3FF-4A1A-9C2C-5962460044E3";
paths = (
{
closed = 1;
nodes = (
"377 703 OFFCURVE",
"441 669 OFFCURVE",
"476 617 CURVE",
"397 545 LINE",
"355 583 OFFCURVE",
"304 603 OFFCURVE",
"253 603 CURVE",
"238 603 OFFCURVE",
"226 602 OFFCURVE",
"214 600 CURVE",
"174 521 OFFCURVE",
"160 436 OFFCURVE",
"160 354 CURVE",
"160 205 OFFCURVE",
"233 95 OFFCURVE",
"332 95 CURVE",
"357 95 OFFCURVE",
"388 103 OFFCURVE",
"403 119 CURVE SMOOTH",
"415 131 OFFCURVE",
"417 167 OFFCURVE",
"417 189 CURVE",
"417 292 OFFCURVE",
"359 360 OFFCURVE",
"271 360 CURVE",
"231 360 OFFCURVE",
"189 332 OFFCURVE",
"152 294 CURVE",
"152 329 LINE",
"254 439 LINE SMOOTH",
"268 454 OFFCURVE",
"299 458 OFFCURVE",
"321 458 CURVE",
"422 458 OFFCURVE",
"490 380 OFFCURVE",
"490 264 CURVE",
"490 228 OFFCURVE",
"488 190 OFFCURVE",
"471 157 CURVE SMOOTH",
"442 99 OFFCURVE",
"378 52 OFFCURVE",
"315 8 CURVE SMOOTH",
"305 1 OFFCURVE",
"293 -3 OFFCURVE",
"273 -3 CURVE",
"146 -3 OFFCURVE",
"75 102 OFFCURVE",
"75 300 CURVE",
"75 387 OFFCURVE",
"82 484 OFFCURVE",
"129 559 CURVE SMOOTH",
"163 613 OFFCURVE",
"206 652 OFFCURVE",
"252 685 CURVE SMOOTH",
"269 697 OFFCURVE",
"294 703 OFFCURVE",
"316 703 CURVE"
);
}
);
width = 565;
}
);
unicode = 0036;
},
{
glyphname = seven;
lastChange = "2021-04-24 10:29:53 +0000";
layers = (
{
backgroundImage = {
crop = "{{0, 0}, {498, 1000}}";
imagePath = "sample-num/seven.png";
locked = "1";
transform = "{1, 0, 0, 1, 24, -200}";
};
layerId = "E2AE1CAA-C3FF-4A1A-9C2C-5962460044E3";
paths = (
{
closed = 1;
nodes = (
"420 694 LINE",
"427 685 LINE",
"366 460 OFFCURVE",
"309 236 OFFCURVE",
"254 11 CURVE",
"191 10 LINE",
"248 205 OFFCURVE",
"297 401 OFFCURVE",
"338 596 CURVE",
"260 597 OFFCURVE",
"171 594 OFFCURVE",
"75 585 CURVE",
"98 691 LINE"
);
}
);
width = 502;
}
);
unicode = 0037;
},
{
glyphname = eight;
lastChange = "2021-04-23 19:18:57 +0000";
layers = (
{
backgroundImage = {
crop = "{{0, 0}, {498, 1000}}";
imagePath = "sample-num/eight.png";
locked = "1";
transform = "{1, 0, 0, 1, 22, -200}";
};
layerId = "E2AE1CAA-C3FF-4A1A-9C2C-5962460044E3";
paths = (
{
closed = 1;
nodes = (
"246 -2 OFFCURVE",
"263 0 OFFCURVE",
"276 9 CURVE SMOOTH",
"354 62 OFFCURVE",
"438 136 OFFCURVE",
"438 211 CURVE",
"438 231 OFFCURVE",
"442 270 OFFCURVE",
"425 298 CURVE SMOOTH",
"404 332 OFFCURVE",
"374 358 OFFCURVE",
"331 375 CURVE",
"319 386 LINE",
"349 409 OFFCURVE",
"382 434 OFFCURVE",
"402 465 CURVE SMOOTH",
"422 497 OFFCURVE",
"432 535 OFFCURVE",
"432 571 CURVE",
"432 658 OFFCURVE",
"380 705 OFFCURVE",
"282 705 CURVE",
"264 705 OFFCURVE",
"238 700 OFFCURVE",
"228 692 CURVE SMOOTH",
"167 646 OFFCURVE",
"126 603 OFFCURVE",
"95 557 CURVE SMOOTH",
"80 535 OFFCURVE",
"79 511 OFFCURVE",
"79 488 CURVE",
"79 420 OFFCURVE",
"112 363 OFFCURVE",
"174 324 CURVE",
"174 316 LINE",
"145 295 OFFCURVE",
"111 269 OFFCURVE",
"93 236 CURVE SMOOTH",
"80 212 OFFCURVE",
"75 177 OFFCURVE",
"75 148 CURVE",
"75 65 OFFCURVE",
"145 -2 OFFCURVE",
"231 -2 CURVE"
);
},
{
closed = 1;
nodes = (
"223 92 OFFCURVE",
"161 146 OFFCURVE",
"161 213 CURVE",
"161 244 OFFCURVE",
"172 285 OFFCURVE",
"199 306 CURVE",
"297 279 OFFCURVE",
"350 222 OFFCURVE",
"350 143 CURVE",
"350 128 OFFCURVE",
"348 112 OFFCURVE",
"339 97 CURVE",
"326 95 OFFCURVE",
"312 92 OFFCURVE",
"299 92 CURVE"
);
},
{
closed = 1;
nodes = (
"186 454 OFFCURVE",
"159 492 OFFCURVE",
"159 550 CURVE",
"159 565 OFFCURVE",
"161 579 OFFCURVE",
"163 594 CURVE",
"178 609 OFFCURVE",
"202 615 OFFCURVE",
"221 615 CURVE",
"291 615 OFFCURVE",
"337 571 OFFCURVE",
"337 504 CURVE",
"337 470 OFFCURVE",
"325 434 OFFCURVE",
"309 402 CURVE",
"301 396 OFFCURVE",
"290 395 OFFCURVE",
"280 399 CURVE"
);
}
);
width = 513;
}
);
unicode = 0038;
},
{
glyphname = nine;
lastChange = "2021-04-26 09:11:02 +0000";
layers = (
{
backgroundImage = {
crop = "{{0, 0}, {498, 1000}}";
imagePath = "sample-num/nine.png";
locked = "1";
transform = "{1, 0, 0, 1, 48, -200}";
};
layerId = "E2AE1CAA-C3FF-4A1A-9C2C-5962460044E3";
paths = (
{
closed = 1;
nodes = (
"423 703 OFFCURVE",
"489 597 OFFCURVE",
"489 391 CURVE",
"489 281 OFFCURVE",
"471 199 OFFCURVE",
"430 133 CURVE SMOOTH",
"402 89 OFFCURVE",
"361 51 OFFCURVE",
"317 19 CURVE SMOOTH",
"301 7 OFFCURVE",
"277 -1 OFFCURVE",
"240 -1 CURVE",
"191 -1 OFFCURVE",
"137 28 OFFCURVE",
"87 83 CURVE",
"170 163 LINE",
"213 120 OFFCURVE",
"264 98 OFFCURVE",
"304 98 CURVE",
"331 98 OFFCURVE",
"348 101 OFFCURVE",
"360 108 CURVE",
"395 183 OFFCURVE",
"408 267 OFFCURVE",
"408 346 CURVE",
"408 496 OFFCURVE",
"335 610 OFFCURVE",
"243 610 CURVE",
"213 610 OFFCURVE",
"185 597 OFFCURVE",
"161 579 CURVE",
"154 555 OFFCURVE",
"151 530 OFFCURVE",
"151 505 CURVE",
"151 417 OFFCURVE",
"216 345 OFFCURVE",
"296 345 CURVE",
"336 345 OFFCURVE",
"384 369 OFFCURVE",
"417 401 CURVE",
"417 375 LINE",
"307 257 LINE",
"290 249 OFFCURVE",
"270 246 OFFCURVE",
"242 246 CURVE",
"146 246 OFFCURVE",
"75 323 OFFCURVE",
"75 435 CURVE",
"75 486 OFFCURVE",
"85 532 OFFCURVE",
"105 557 CURVE SMOOTH",
"149 610 OFFCURVE",
"193 650 OFFCURVE",
"241 684 CURVE SMOOTH",
"262 698 OFFCURVE",
"286 703 OFFCURVE",
"310 703 CURVE"
);
}
);
width = 564;
}
);
unicode = 0039;
},
{
glyphname = period;
lastChange = "2021-04-26 13:54:09 +0000";
layers = (
{
layerId = "E2AE1CAA-C3FF-4A1A-9C2C-5962460044E3";
paths = (
{
closed = 1;
nodes = (
"225 60 LINE",
"225 51 LINE",
"199 34 OFFCURVE",
"170 14 OFFCURVE",
"146 -9 CURVE",
"75 18 LINE",
"75 27 LINE",
"97 52 OFFCURVE",
"123 76 OFFCURVE",
"147 95 CURVE"
);
}
);
width = 300;
}
);
unicode = 002E;
},
{
glyphname = comma;
lastChange = "2021-04-26 13:43:33 +0000";
layers = (
{
backgroundImage = {
crop = "{{0, 0}, {367, 1000}}";
imagePath = "sample-lc/j.png";
locked = "1";
transform = "{1, 0, 0, 1, -4, -200}";
};
layerId = "E2AE1CAA-C3FF-4A1A-9C2C-5962460044E3";
paths = (
{
closed = 1;
nodes = (
"84 -104 LINE",
"178 -56 LINE SMOOTH",
"202 -44 OFFCURVE",
"225 12 OFFCURVE",
"225 58 CURVE",
"146 96 LINE",
"119 74 OFFCURVE",
"96 49 OFFCURVE",
"75 21 CURVE",
"128 0 LINE",
"116 -50 OFFCURVE",
"93 -83 OFFCURVE",
"76 -95 CURVE"
);
}
);
width = 300;
}
);
unicode = 002C;
},
{
glyphname = colon;
lastChange = "2021-04-26 13:47:45 +0000";
layers = (
{
layerId = "E2AE1CAA-C3FF-4A1A-9C2C-5962460044E3";
paths = (
{
closed = 1;
nodes = (
"225 60 LINE",
"225 51 LINE",
"199 34 OFFCURVE",
"170 14 OFFCURVE",
"146 -9 CURVE",
"75 18 LINE",
"75 27 LINE",
"97 52 OFFCURVE",
"123 76 OFFCURVE",
"147 95 CURVE"
);
},
{
closed = 1;
nodes = (
"225 436 LINE",
"225 427 LINE",
"199 410 OFFCURVE",
"170 390 OFFCURVE",
"146 367 CURVE",
"75 394 LINE",
"75 403 LINE",
"97 428 OFFCURVE",
"123 451 OFFCURVE",
"147 471 CURVE"
);
}
);
width = 300;
}
);
unicode = 003A;
},
{
glyphname = semicolon;
lastChange = "2021-04-26 13:50:39 +0000";
layers = (
{
layerId = "E2AE1CAA-C3FF-4A1A-9C2C-5962460044E3";
paths = (
{
closed = 1;
nodes = (
"225 436 LINE",
"225 427 LINE",
"199 410 OFFCURVE",
"170 390 OFFCURVE",
"146 367 CURVE",
"75 394 LINE",
"75 403 LINE",
"97 428 OFFCURVE",
"123 451 OFFCURVE",
"147 471 CURVE"
);
},
{
closed = 1;
nodes = (
"84 -104 LINE",
"178 -56 LINE SMOOTH",
"202 -44 OFFCURVE",
"225 12 OFFCURVE",
"225 58 CURVE",
"146 96 LINE",
"119 74 OFFCURVE",
"96 49 OFFCURVE",
"75 21 CURVE",
"128 0 LINE",
"116 -50 OFFCURVE",
"93 -83 OFFCURVE",
"76 -95 CURVE"
);
}
);
width = 300;
}
);
unicode = 003B;
},
{
glyphname = exclam;
lastChange = "2021-04-26 14:13:24 +0000";
layers = (
{
layerId = "E2AE1CAA-C3FF-4A1A-9C2C-5962460044E3";
paths = (
{
closed = 1;
nodes = (
"225 60 LINE",
"225 51 LINE",
"199 34 OFFCURVE",
"170 14 OFFCURVE",
"146 -9 CURVE",
"75 18 LINE",
"75 27 LINE",
"97 52 OFFCURVE",
"123 76 OFFCURVE",
"147 95 CURVE"
);
},
{
closed = 1;
nodes = (
"192 701 LINE",
"190 460 OFFCURVE",
"190 379 OFFCURVE",
"194 168 CURVE",
"91 152 LINE",
"97 368 OFFCURVE",
"94 468 OFFCURVE",
"84 685 CURVE"
);
}
);
width = 300;
}
);
unicode = 0021;
},
{
glyphname = question;
lastChange = "2021-04-26 14:31:38 +0000";
layers = (
{
layerId = "E2AE1CAA-C3FF-4A1A-9C2C-5962460044E3";
paths = (
{
closed = 1;
nodes = (
"361 710 OFFCURVE",
"489 644 OFFCURVE",
"489 577 CURVE",
"489 552 OFFCURVE",
"483 524 OFFCURVE",
"474 505 CURVE SMOOTH",
"452 463 OFFCURVE",
"409 418 OFFCURVE",
"362 391 CURVE SMOOTH",
"337 376 OFFCURVE",
"305 369 OFFCURVE",
"276 369 CURVE",
"240 369 OFFCURVE",
"205 374 OFFCURVE",
"169 381 CURVE",
"196 404 OFFCURVE",
"221 429 OFFCURVE",
"247 454 CURVE",
"281 445 OFFCURVE",
"316 437 OFFCURVE",
"350 437 CURVE",
"362 437 OFFCURVE",
"378 438 OFFCURVE",
"388 445 CURVE SMOOTH",
"408 456 OFFCURVE",
"412 479 OFFCURVE",
"412 500 CURVE",
"412 563 OFFCURVE",
"301 616 OFFCURVE",
"166 617 CURVE",
"158 604 OFFCURVE",
"151 592 OFFCURVE",
"151 579 CURVE",
"151 563 OFFCURVE",
"158 546 OFFCURVE",
"198 527 CURVE",
"134 466 LINE",
"96 483 OFFCURVE",
"75 511 OFFCURVE",
"75 533 CURVE",
"75 551 OFFCURVE",
"80 571 OFFCURVE",
"90 592 CURVE",
"162 685 LINE",
"186 700 OFFCURVE",
"209 710 OFFCURVE",
"239 710 CURVE"
);
},
{
closed = 1;
nodes = (
"277 397 LINE",
"275 296 OFFCURVE",
"275 257 OFFCURVE",
"279 169 CURVE",
"176 152 LINE",
"182 243 OFFCURVE",
"179 300 OFFCURVE",
"169 381 CURVE"
);
},
{
closed = 1;
nodes = (
"310 60 LINE",
"310 51 LINE",
"284 34 OFFCURVE",
"255 14 OFFCURVE",
"231 -9 CURVE",
"160 18 LINE",
"160 27 LINE",
"182 52 OFFCURVE",
"208 76 OFFCURVE",
"232 95 CURVE"
);
}
);
width = 564;
}
);
unicode = 003F;
},
{
glyphname = comma.001;
layers = (
{
backgroundImage = {
crop = "{{0, 0}, {367, 1000}}";
imagePath = "sample-lc/j.png";
locked = "1";
transform = "{1, 0, 0, 1, 0, -200}";
};
layerId = "E2AE1CAA-C3FF-4A1A-9C2C-5962460044E3";
paths = (
{
closed = 1;
nodes = (
"79 -115 LINE",
"182 -47 LINE SMOOTH",
"218 -23 OFFCURVE",
"230 43 OFFCURVE",
"230 88 CURVE",
"134 89 LINE",
"134 24 OFFCURVE",
"129 -62 OFFCURVE",
"69 -107 CURVE"
);
},
{
closed = 1;
nodes = (
"254 723 LINE",
"224 702 OFFCURVE",
"196 682 OFFCURVE",
"172 658 CURVE",
"103 686 LINE",
"124 714 OFFCURVE",
"147 739 OFFCURVE",
"174 761 CURVE"
);
}
);
width = 600;
}
);
},
{
glyphname = parenleft;
lastChange = "2021-04-27 13:16:02 +0000";
layers = (
{
background = {
paths = (
{
closed = 1;
nodes = (
"215 -169 LINE",
"433 -169 LINE",
"433 705 LINE",
"215 705 LINE"
);
}
);
};
layerId = "E2AE1CAA-C3FF-4A1A-9C2C-5962460044E3";
paths = (
{
closed = 1;
nodes = (
"205 12 OFFCURVE",
"159 113 OFFCURVE",
"157 350 CURVE SMOOTH",
"156 457 OFFCURVE",
"181 556 OFFCURVE",
"210 609 CURVE",
"241 644 OFFCURVE",
"285 679 OFFCURVE",
"314 696 CURVE",
"307 713 LINE",
"236 662 OFFCURVE",
"176 609 OFFCURVE",
"140 567 CURVE SMOOTH",
"99 517 OFFCURVE",
"75 416 OFFCURVE",
"75 238 CURVE SMOOTH",
"75 28 OFFCURVE",
"138 -92 OFFCURVE",
"285 -164 CURVE",
"340 -54 LINE"
);
}
);
width = 415;
}
);
unicode = 0028;
},
{
glyphname = parenright;
lastChange = "2021-04-27 13:26:58 +0000";
layers = (
{
layerId = "E2AE1CAA-C3FF-4A1A-9C2C-5962460044E3";
paths = (
{
closed = 1;
nodes = (
"120 603 LINE SMOOTH",
"240 536 OFFCURVE",
"274 436 OFFCURVE",
"276 199 CURVE SMOOTH",
"277 92 OFFCURVE",
"252 -7 OFFCURVE",
"223 -60 CURVE",
"192 -95 OFFCURVE",
"148 -130 OFFCURVE",
"119 -147 CURVE",
"128 -162 LINE",
"199 -111 OFFCURVE",
"257 -60 OFFCURVE",
"293 -18 CURVE SMOOTH",
"334 32 OFFCURVE",
"358 133 OFFCURVE",
"358 311 CURVE SMOOTH",
"358 521 OFFCURVE",
"306 641 OFFCURVE",
"174 713 CURVE",
"75 625 LINE"
);
}
);
width = 433;
}
);
unicode = 0029;
},
{
glyphname = hyphen;
lastChange = "2021-04-26 14:35:20 +0000";
layers = (
{
layerId = "E2AE1CAA-C3FF-4A1A-9C2C-5962460044E3";
paths = (
{
closed = 1;
nodes = (
"105 311 LINE",
"449 311 LINE",
"419 231 LINE",
"75 231 LINE"
);
}
);
width = 524;
}
);
unicode = 002D;
},
{
glyphname = underscore;
lastChange = "2021-04-27 12:59:01 +0000";
layers = (
{
layerId = "E2AE1CAA-C3FF-4A1A-9C2C-5962460044E3";
paths = (
{
closed = 1;
nodes = (
"15 -46 LINE",
"540 -46 LINE",
"510 -126 LINE",
"-15 -126 LINE"
);
}
);
width = 525;
}
);
unicode = 005F;
},
{
glyphname = quotedblleft;
lastChange = "2021-04-26 14:44:42 +0000";
layers = (
{
layerId = "E2AE1CAA-C3FF-4A1A-9C2C-5962460044E3";
paths = (
{
closed = 1;
nodes = (
"216 706 LINE",
"125 658 LINE SMOOTH",
"100 645 OFFCURVE",
"75 588 OFFCURVE",
"75 546 CURVE",
"154 506 LINE",
"175 535 OFFCURVE",
"198 558 OFFCURVE",
"225 579 CURVE",
"172 602 LINE",
"184 652 OFFCURVE",
"207 685 OFFCURVE",
"224 697 CURVE"
);
},
{
closed = 1;
nodes = (
"441 706 LINE",
"350 658 LINE SMOOTH",
"325 644 OFFCURVE",
"300 588 OFFCURVE",
"300 546 CURVE",
"379 506 LINE",
"400 535 OFFCURVE",
"423 558 OFFCURVE",
"450 579 CURVE",
"397 602 LINE",
"409 652 OFFCURVE",
"432 685 OFFCURVE",
"449 697 CURVE"
);
}
);
width = 525;
}
);
unicode = 201C;
},
{
glyphname = quoteleft;
lastChange = "2021-04-26 14:50:13 +0000";
layers = (
{
layerId = "E2AE1CAA-C3FF-4A1A-9C2C-5962460044E3";
paths = (
{
closed = 1;
nodes = (
"216 706 LINE",
"125 658 LINE SMOOTH",
"100 644 OFFCURVE",
"75 588 OFFCURVE",
"75 546 CURVE",
"154 506 LINE",
"175 535 OFFCURVE",
"198 558 OFFCURVE",
"225 579 CURVE",
"172 602 LINE",
"184 652 OFFCURVE",
"207 685 OFFCURVE",
"224 697 CURVE"
);
}
);
width = 300;
}
);
unicode = 2018;
},
{
glyphname = guillemetleft;
lastChange = "2021-04-26 19:25:19 +0000";
layers = (
{
background = {
paths = (
{
closed = 1;
nodes = (
"275 273 LINE",
"436 490 LINE",
"501 495 LINE",
"501 482 LINE",
"367 309 LINE",
"493 124 LINE",
"387 98 LINE"
);
}
);
};
layerId = "E2AE1CAA-C3FF-4A1A-9C2C-5962460044E3";
paths = (
{
closed = 1;
nodes = (
"275 273 LINE",
"416 463 LINE",
"481 468 LINE",
"481 455 LINE",
"367 309 LINE",
"511 97 LINE",
"405 71 LINE"
);
},
{
closed = 1;
nodes = (
"75 243 LINE",
"236 460 LINE",
"301 465 LINE",
"301 452 LINE",
"167 279 LINE",
"293 94 LINE",
"187 68 LINE"
);
}
);
width = 586;
}
);
unicode = 00AB;
},
{
glyphname = guillemetright;
lastChange = "2021-04-26 19:40:46 +0000";
layers = (
{
background = {
paths = (
{
closed = 1;
nodes = (
"501 320 LINE",
"340 103 LINE",
"275 98 LINE",
"275 111 LINE",
"409 284 LINE",
"283 469 LINE",
"389 495 LINE"
);
}
);
};
layerId = "E2AE1CAA-C3FF-4A1A-9C2C-5962460044E3";
paths = (
{
closed = 1;
nodes = (
"301 290 LINE",
"140 73 LINE",
"75 68 LINE",
"75 81 LINE",
"209 254 LINE",
"83 439 LINE",
"189 465 LINE"
);
},
{
closed = 1;
nodes = (
"501 320 LINE",
"320 76 LINE",
"255 71 LINE",
"255 84 LINE",
"409 284 LINE",
"301 441 LINE",
"407 467 LINE"
);
}
);
width = 576;
}
);
unicode = 00BB;
},
{
glyphname = guilsinglleft;
lastChange = "2021-06-17 09:16:30 +0000";
layers = (
{
layerId = "E2AE1CAA-C3FF-4A1A-9C2C-5962460044E3";
paths = (
{
closed = 1;
nodes = (
"75 243 LINE",
"236 460 LINE",
"301 465 LINE",
"301 452 LINE",
"167 279 LINE",
"293 94 LINE",
"187 68 LINE"
);
}
);
width = 376;
}
);
unicode = 2039;
},
{
glyphname = guilsinglright;
lastChange = "2021-06-17 09:16:58 +0000";
layers = (
{
layerId = "E2AE1CAA-C3FF-4A1A-9C2C-5962460044E3";
paths = (
{
closed = 1;
nodes = (
"301 290 LINE",
"140 73 LINE",
"75 68 LINE",
"75 81 LINE",
"209 254 LINE",
"83 439 LINE",
"189 465 LINE"
);
}
);
width = 376;
}
);
unicode = 203A;
},
{
glyphname = quotedbl;
lastChange = "2021-04-26 19:51:47 +0000";
layers = (
{
layerId = "E2AE1CAA-C3FF-4A1A-9C2C-5962460044E3";
paths = (
{
closed = 1;
nodes = (
"381 701 LINE",
"378 631 OFFCURVE",
"376 561 OFFCURVE",
"379 491 CURVE",
"275 485 LINE",
"278 555 OFFCURVE",
"280 624 OFFCURVE",
"277 694 CURVE"
);
},
{
closed = 1;
nodes = (
"181 701 LINE",
"178 631 OFFCURVE",
"176 561 OFFCURVE",
"179 491 CURVE",
"75 485 LINE",
"78 555 OFFCURVE",
"80 624 OFFCURVE",
"77 694 CURVE"
);
}
);
width = 456;
}
);
unicode = 0022;
},
{
glyphname = quotesingle;
lastChange = "2021-04-26 19:52:35 +0000";
layers = (
{
layerId = "E2AE1CAA-C3FF-4A1A-9C2C-5962460044E3";
paths = (
{
closed = 1;
nodes = (
"181 701 LINE",
"178 631 OFFCURVE",
"176 561 OFFCURVE",
"179 491 CURVE",
"75 485 LINE",
"78 555 OFFCURVE",
"80 624 OFFCURVE",
"77 694 CURVE"
);
}
);
width = 256;
}
);
unicode = 0027;
},
{
glyphname = guillemetleft.001;
layers = (
{
background = {
paths = (
{
closed = 1;
nodes = (
"230 223 LINE",
"404 460 LINE",
"469 465 LINE",
"469 452 LINE",
"322 259 LINE",
"435 94 LINE",
"329 68 LINE"
);
}
);
};
layerId = "E2AE1CAA-C3FF-4A1A-9C2C-5962460044E3";
paths = (
{
closed = 1;
nodes = (
"243 273 LINE",
"404 490 LINE",
"469 495 LINE",
"469 482 LINE",
"335 309 LINE",
"461 124 LINE",
"355 98 LINE"
);
},
{
closed = 1;
nodes = (
"43 243 LINE",
"204 460 LINE",
"269 465 LINE",
"269 452 LINE",
"135 279 LINE",
"261 94 LINE",
"155 68 LINE"
);
}
);
width = 600;
}
);
},
{
glyphname = at;
lastChange = "2021-04-27 12:42:46 +0000";
layers = (
{
layerId = "E2AE1CAA-C3FF-4A1A-9C2C-5962460044E3";
paths = (
{
closed = 1;
nodes = (
"75 151 OFFCURVE",
"214 4 OFFCURVE",
"384 4 CURVE SMOOTH",
"473 4 OFFCURVE",
"526 32 OFFCURVE",
"649 145 CURVE",
"639 160 LINE",
"558 110 OFFCURVE",
"513 94 OFFCURVE",
"460 93 CURVE SMOOTH",
"278 95 OFFCURVE",
"157 215 OFFCURVE",
"157 392 CURVE SMOOTH",
"157 463 OFFCURVE",
"188 548 OFFCURVE",
"226 580 CURVE SMOOTH",
"253 602 OFFCURVE",
"335 618 OFFCURVE",
"405 618 CURVE SMOOTH",
"563 618 OFFCURVE",
"692 545 OFFCURVE",
"692 432 CURVE SMOOTH",
"692 365 OFFCURVE",
"672 312 OFFCURVE",
"646 283 CURVE",
"639 282 OFFCURVE",
"633 281 OFFCURVE",
"626 281 CURVE SMOOTH",
"589 281 OFFCURVE",
"558 308 OFFCURVE",
"558 338 CURVE SMOOTH",
"558 515 LINE",
"461 550 LINE",
"464 538 OFFCURVE",
"465 524 OFFCURVE",
"465 509 CURVE",
"413 509 LINE SMOOTH",
"352 509 OFFCURVE",
"299 486 OFFCURVE",
"254 442 CURVE SMOOTH",
"225 413 OFFCURVE",
"219 369 OFFCURVE",
"219 332 CURVE SMOOTH",
"219 265 OFFCURVE",
"271 221 OFFCURVE",
"348 221 CURVE",
"464 287 LINE",
"464 254 LINE",
"463 226 OFFCURVE",
"492 208 OFFCURVE",
"535 208 CURVE SMOOTH",
"561 208 OFFCURVE",
"578 216 OFFCURVE",
"601 228 CURVE SMOOTH",
"642 250 OFFCURVE",
"706 299 OFFCURVE",
"727 328 CURVE SMOOTH",
"761 375 OFFCURVE",
"773 411 OFFCURVE",
"773 485 CURVE SMOOTH",
"773 622 OFFCURVE",
"631 709 OFFCURVE",
"463 709 CURVE SMOOTH",
"333 709 OFFCURVE",
"178 593 OFFCURVE",
"123 508 CURVE SMOOTH",
"92 461 OFFCURVE",
"75 395 OFFCURVE",
"75 331 CURVE SMOOTH"
);
},
{
closed = 1;
nodes = (
"302 415 OFFCURVE",
"305 434 OFFCURVE",
"317 451 CURVE",
"365 456 OFFCURVE",
"415 451 OFFCURVE",
"464 444 CURVE",
"464 307 LINE",
"420 304 LINE",
"355 304 OFFCURVE",
"302 345 OFFCURVE",
"302 396 CURVE SMOOTH"
);
}
);
width = 848;
}
);
unicode = 0040;
},
{
glyphname = ampersand;
lastChange = "2021-04-12 21:07:17 +0000";
layers = (
{
backgroundImage = {
crop = "{{0, 0}, {591, 1000}}";
imagePath = "sample-uc/ampersand.png";
locked = "1";
transform = "{1, 0, 0, 1, 0, -200}";
};
layerId = "E2AE1CAA-C3FF-4A1A-9C2C-5962460044E3";
paths = (
{
closed = 1;
nodes = (
"359 361 LINE",
"301 369 LINE",
"262 369 OFFCURVE",
"206 345 OFFCURVE",
"161 310 CURVE",
"157 291 OFFCURVE",
"155 270 OFFCURVE",
"155 251 CURVE",
"155 168 OFFCURVE",
"231 90 OFFCURVE",
"352 90 CURVE",
"382 90 OFFCURVE",
"398 97 OFFCURVE",
"408 112 CURVE",
"386 174 OFFCURVE",
"339 216 OFFCURVE",
"290 216 CURVE",
"206 216 LINE",
"247 267 LINE",
"493 267 LINE",
"460 210 LINE",
"439 210 LINE",
"443 193 OFFCURVE",
"445 178 OFFCURVE",
"445 162 CURVE",
"445 75 OFFCURVE",
"381 -2 OFFCURVE",
"274 -2 CURVE",
"171 -2 OFFCURVE",
"88 75 OFFCURVE",
"88 169 CURVE",
"88 280 OFFCURVE",
"143 342 OFFCURVE",
"217 381 CURVE",
"154 400 OFFCURVE",
"103 450 OFFCURVE",
"103 494 CURVE",
"103 519 OFFCURVE",
"109 547 OFFCURVE",
"118 566 CURVE SMOOTH",
"140 608 OFFCURVE",
"183 653 OFFCURVE",
"230 680 CURVE SMOOTH",
"255 695 OFFCURVE",
"287 702 OFFCURVE",
"316 702 CURVE",
"366 702 OFFCURVE",
"397 689 OFFCURVE",
"423 660 CURVE",
"396 637 OFFCURVE",
"371 612 OFFCURVE",
"345 587 CURVE",
"320 617 OFFCURVE",
"284 634 OFFCURVE",
"242 634 CURVE SMOOTH",
"230 634 OFFCURVE",
"214 633 OFFCURVE",
"204 626 CURVE SMOOTH",
"184 615 OFFCURVE",
"180 592 OFFCURVE",
"180 571 CURVE",
"180 508 OFFCURVE",
"287 455 OFFCURVE",
"416 454 CURVE",
"416 447 LINE"
);
}
);
width = 600;
}
);
unicode = 0026;
},
{
glyphname = at.001;
layers = (
{
layerId = "E2AE1CAA-C3FF-4A1A-9C2C-5962460044E3";
paths = (
{
closed = 1;
nodes = (
"215 265 OFFCURVE",
"267 221 OFFCURVE",
"344 221 CURVE",
"462 287 LINE",
"462 229 LINE",
"569 229 LINE",
"569 512 LINE",
"461 550 LINE",
"464 538 OFFCURVE",
"465 524 OFFCURVE",
"465 509 CURVE",
"413 509 LINE SMOOTH",
"352 509 OFFCURVE",
"295 486 OFFCURVE",
"250 442 CURVE SMOOTH",
"221 413 OFFCURVE",
"215 369 OFFCURVE",
"215 332 CURVE SMOOTH"
);
},
{
closed = 1;
nodes = (
"302 415 OFFCURVE",
"305 434 OFFCURVE",
"317 451 CURVE",
"365 456 OFFCURVE",
"415 451 OFFCURVE",
"465 444 CURVE",
"465 307 LINE",
"420 304 LINE",
"355 304 OFFCURVE",
"302 345 OFFCURVE",
"302 396 CURVE SMOOTH"
);
},
{
closed = 1;
nodes = (
"88 443 OFFCURVE",
"75 372 OFFCURVE",
"75 286 CURVE",
"75 172 OFFCURVE",
"182 60 OFFCURVE",
"304 60 CURVE SMOOTH",
"369 60 OFFCURVE",
"425 68 OFFCURVE",
"501 97 CURVE",
"588 160 LINE",
"522 139 OFFCURVE",
"441 127 OFFCURVE",
"347 127 CURVE",
"234 127 OFFCURVE",
"159 216 OFFCURVE",
"159 349 CURVE",
"159 405 OFFCURVE",
"190 499 OFFCURVE",
"237 586 CURVE",
"317 614 OFFCURVE",
"357 622 OFFCURVE",
"395 622 CURVE",
"462 622 OFFCURVE",
"628 600 OFFCURVE",
"639 549 CURVE",
"639 208 LINE",
"743 208 LINE",
"743 556 LINE",
"738 650 OFFCURVE",
"552 700 OFFCURVE",
"441 700 CURVE",
"398 700 OFFCURVE",
"323 670 OFFCURVE",
"255 626 CURVE SMOOTH",
"193 586 OFFCURVE",
"142 533 OFFCURVE",
"115 488 CURVE SMOOTH"
);
}
